<?xml version="1.0" encoding="UTF-8" standalone="no"?>
<!-- Created with Inkscape (http://www.inkscape.org/) -->

<svg
   xmlns:dc="http://purl.org/dc/elements/1.1/"
   xmlns:cc="http://creativecommons.org/ns#"
   xmlns:rdf="http://www.w3.org/1999/02/22-rdf-syntax-ns#"
   xmlns:svg="http://www.w3.org/2000/svg"
   xmlns="http://www.w3.org/2000/svg"
   xmlns:xlink="http://www.w3.org/1999/xlink"
   version="1.1"
   width="1100.2791"
   height="916"
   viewBox="0 0 1100.279 916"
   id="Layer_1"
   xml:space="preserve"><metadata
   id="metadata365"><rdf:RDF><cc:Work
       rdf:about=""><dc:format>image/svg+xml</dc:format><dc:type
         rdf:resource="http://purl.org/dc/dcmitype/StillImage" /><dc:title></dc:title></cc:Work></rdf:RDF></metadata><defs
   id="defs363" />
<path
   d="m 100.958,491.016 c -13.6,0 -24.625,11.027 -24.625,24.625 0,13.6 11.025,24.623 24.625,24.623 13.599,0 24.624,-11.023 24.624,-24.623 0,-13.598 -11.026,-24.625 -24.624,-24.625 z m 13.238,37.609 c -0.128,0.193 -0.346,0.313 -0.58,0.313 h -11.089 v -4.541 l 5.153,-2.6 -0.391,-0.77 -4.763,2.4 v -2.377 l 2.984,-1.502 -0.39,-0.775 -2.595,1.311 v -3.223 H 99.69 v 4.904 l -2.489,-1.727 -0.493,0.713 2.982,2.064 v 6.121 H 88.56 c -0.233,0 -0.452,-0.119 -0.58,-0.313 -0.128,-0.195 -0.148,-0.441 -0.056,-0.656 l 12.55,-28.811 c 0.11,-0.254 0.36,-0.416 0.636,-0.416 l 0,0 c 0.275,0 0.525,0.162 0.635,0.416 l 12.508,28.811 c 0.093,0.217 0.072,0.463 -0.057,0.658 z"
   id="path3"
   style="fill:#6d6e71" />
<path
   d="m 512.748,229.41 h -9.32 c -6.631,0 -7.688,-2.934 -7.688,-5.654 0,-1.291 0.081,-3.42 0.16,-6.027 h 15.573 c 2.329,0 6.776,-0.955 6.776,-5.219 0,-4.26 -2.053,-7.053 -4.803,-7.053 h -17.354 c -0.018,-6.146 -0.418,-12.271 -6.422,-12.271 -2.483,0 -4.498,1.02 -5.348,3.553 -1.115,3.328 -0.82,7.225 -0.806,10.689 0.004,0.658 0.007,1.32 0.009,1.98 0.008,2.27 0.054,4.553 0.064,6.834 0.006,2.455 0.009,4.91 0.009,7.363 0,13.746 12.493,17.641 14.89,17.641 2.397,0 11.784,0.223 13.479,0.223 1.696,0 6.563,-0.449 6.563,-5.371 0,-4.922 -3.453,-6.688 -5.782,-6.688 z"
   id="path5"
   style="fill:#6d6e71" />
<path
   d="m 609.482,208.803 h -7.645 v -5.014 c 0,-1.883 1.247,-2.322 2.126,-2.322 0.877,0 5.395,0 5.395,0 v -8.277 l -7.43,-0.029 c -8.248,0 -10.125,6.174 -10.125,10.125 v 5.518 h -4.77 v 8.529 h 4.77 c 0,10.947 0,24.137 0,24.137 h 10.034 c 0,0 0,-13.32 0,-24.137 h 6.769 l 0.876,-8.53 z"
   id="path7"
   style="fill:#6d6e71" />
<path
   d="m 223.926,212.584 c -0.324,-1.588 -0.811,-3.152 -1.441,-4.646 -0.619,-1.467 -1.387,-2.879 -2.279,-4.199 -0.884,-1.309 -1.899,-2.539 -3.017,-3.656 -1.118,-1.119 -2.349,-2.135 -3.657,-3.018 -1.32,-0.895 -2.734,-1.66 -4.199,-2.281 -1.493,-0.629 -3.057,-1.117 -4.646,-1.439 -1.628,-0.334 -3.303,-0.504 -4.977,-0.504 -1.676,0 -3.351,0.17 -4.979,0.504 -1.588,0.322 -3.151,0.811 -4.645,1.439 -1.465,0.621 -2.879,1.387 -4.2,2.281 -1.309,0.883 -2.539,1.898 -3.657,3.018 -1.117,1.117 -2.132,2.348 -3.016,3.656 -0.893,1.32 -1.66,2.732 -2.279,4.199 -0.632,1.494 -1.117,3.059 -1.442,4.646 -0.333,1.625 -0.502,3.301 -0.502,4.975 0,1.678 0.169,3.354 0.502,4.98 0.325,1.588 0.811,3.152 1.442,4.645 0.619,1.465 1.387,2.881 2.279,4.201 0.884,1.309 1.898,2.537 3.016,3.656 1.118,1.117 2.349,2.131 3.657,3.016 1.321,0.893 2.735,1.66 4.2,2.279 1.493,0.633 3.057,1.115 4.645,1.441 1.629,0.336 3.304,0.504 4.979,0.504 1.674,0 3.349,-0.168 4.977,-0.504 1.589,-0.326 3.152,-0.809 4.646,-1.441 1.465,-0.619 2.879,-1.387 4.199,-2.279 1.309,-0.885 2.539,-1.898 3.657,-3.016 1.117,-1.119 2.133,-2.348 3.017,-3.656 0.893,-1.32 1.66,-2.736 2.279,-4.201 0.631,-1.492 1.117,-3.057 1.441,-4.645 0.334,-1.627 0.503,-3.303 0.503,-4.98 0,-1.674 -0.169,-3.35 -0.503,-4.975 z m -3.112,4.766 c -0.306,-0.066 -7.45,-1.604 -14.704,-0.691 -0.148,-0.361 -0.299,-0.725 -0.455,-1.09 -0.439,-1.033 -0.912,-2.057 -1.403,-3.063 8.337,-3.402 11.722,-8.297 11.762,-8.355 2.96,3.595 4.751,8.189 4.8,13.199 z m -7.161,-15.633 c -0.052,0.082 -3.059,4.658 -11.027,7.645 -3.608,-6.631 -7.573,-11.898 -7.891,-12.316 1.596,-0.387 3.26,-0.596 4.976,-0.596 5.344,-10e-4 10.222,1.991 13.942,5.267 z m -18.999,-4.654 c -0.001,0.002 -0.004,0.004 -0.004,0.004 0,0 -0.024,0.006 -0.063,0.014 0.021,-0.007 0.044,-0.011 0.067,-0.018 z m -3.951,1.404 c 0.28,0.377 4.185,5.67 7.839,12.164 -10.137,2.693 -18.934,2.588 -19.491,2.578 1.371,-6.539 5.764,-11.961 11.652,-14.742 z m -12.104,19.092 c 0,-0.225 0.01,-0.445 0.018,-0.666 0.372,0.008 10.804,0.244 21.673,-3.008 0.605,1.184 1.184,2.387 1.713,3.588 -0.279,0.078 -0.556,0.162 -0.832,0.252 -11.393,3.681 -17.171,13.933 -17.171,13.933 0,0 0.007,0.006 0.008,0.01 -3.362,-3.74 -5.409,-8.686 -5.409,-14.109 z m 21.111,21.113 c -5.11,0 -9.796,-1.816 -13.448,-4.838 0.278,0.225 0.473,0.369 0.473,0.369 0,0 4.047,-8.826 16.567,-13.188 0.046,-0.018 0.093,-0.031 0.14,-0.045 2.971,7.719 4.197,14.184 4.51,16.029 -2.533,1.077 -5.319,1.673 -8.242,1.673 z m 11.796,-3.602 c -0.215,-1.275 -1.34,-7.471 -4.109,-15.08 6.815,-1.09 12.721,0.779 13.156,0.922 -0.939,5.883 -4.306,10.957 -9.047,14.158 z"
   id="path9"
   style="fill:#6d6e71;fill-rule:evenodd" />
<path
   d="m 314.354,205.354 c -0.031,-0.016 -0.063,-0.051 -0.095,-0.082 -1.881,-1.676 -4.091,-2.477 -6.632,-2.381 l -0.078,-0.172 c 0.016,-0.016 0.031,-0.016 0.047,-0.016 2.305,-0.504 3.669,-1.021 4.076,-1.584 0.142,-0.455 -0.03,-0.705 -0.533,-0.768 -1.16,0.141 -2.227,0.375 -3.183,0.736 1.208,-0.736 1.678,-1.254 1.411,-1.521 -1.191,0.031 -2.477,0.613 -3.826,1.758 0.502,-0.816 0.69,-1.256 0.565,-1.334 -0.643,0.424 -1.208,0.879 -1.693,1.363 -1.02,1.082 -1.835,2.086 -2.462,2.996 l -0.031,0.078 c -1.614,2.492 -2.743,5 -3.418,7.557 l -0.25,0.189 -0.047,0.045 c -0.973,-1.16 -2.133,-2.131 -3.527,-2.918 -1.646,-1.018 -3.575,-1.99 -5.802,-2.93 -2.43,-1.191 -4.892,-2.18 -7.385,-2.947 -0.015,2.65 1.349,4.766 4.062,6.303 v 0.047 c -0.957,-0.018 -1.882,0.125 -2.775,0.393 0.172,2.461 2.007,4.154 5.487,5.094 l -0.017,0.047 c -1.363,-0.076 -2.492,0.379 -3.37,1.318 1.145,2.133 3.167,3.15 6.1,3.072 -0.581,0.283 -1.035,0.594 -1.333,0.941 -0.533,0.533 -0.706,1.162 -0.533,1.881 0.627,1.082 1.756,1.582 3.418,1.506 l 0,0 0.094,0.109 c -0.016,0.016 -0.031,0.031 -0.047,0.047 -2.869,2.822 -6.334,4.092 -10.396,3.826 l -0.063,0.031 c -2.477,-0.018 -5.126,-1.145 -7.995,-3.402 2.885,3.949 6.71,6.803 11.445,8.592 5.424,1.709 10.85,1.834 16.258,0.375 h 0.094 c 5.253,-1.443 9.705,-4.406 13.373,-8.889 1.693,-2.352 2.76,-4.592 3.184,-6.742 2.743,0.094 4.719,-0.658 5.941,-2.256 l -0.03,-0.049 c -0.91,0.313 -2.697,0.221 -5.348,-0.297 v -0.283 c 0,-0.014 0,-0.014 0.017,0 2.9,-0.313 4.609,-1.205 5.158,-2.682 -2.023,0.754 -4.015,0.768 -5.99,0.064 -0.359,-2.602 -1.644,-4.969 -3.871,-7.115 z"
   id="path11"
   style="fill:#6d6e71" />
<g
   id="g13">
	<circle
   cx="385.263"
   cy="218.48199"
   r="10.79"
   id="circle15"
   style="fill:#6d6e71" />
	<circle
   cx="412.33301"
   cy="218.48199"
   r="10.789"
   id="circle17"
   style="fill:#6d6e71" />
</g>
<path
   d="m 120.654,237.838 -18.59,-42.818 c -0.163,-0.377 -0.534,-0.619 -0.944,-0.619 l 0,0 c -0.41,0 -0.781,0.242 -0.943,0.617 l -18.653,42.818 c -0.139,0.32 -0.107,0.688 0.083,0.979 0.19,0.289 0.514,0.465 0.861,0.465 h 16.546 v -9.096 l -4.433,-3.074 0.732,-1.055 3.7,2.564 v -7.289 h 4.213 v 4.789 l 3.856,-1.943 0.58,1.148 -4.437,2.234 v 3.531 l 7.08,-3.568 0.578,1.146 -7.658,3.861 v 6.75 h 16.483 c 0.348,0 0.67,-0.174 0.861,-0.465 0.191,-0.288 0.223,-0.657 0.085,-0.975 z"
   id="path19"
   style="fill:#6d6e71" />
<path
   d="m 721.945,222.148 c 0.337,-1.547 0.515,-3.146 0.515,-4.791 0,-12.326 -9.992,-22.32 -22.321,-22.32 -1.301,0 -2.576,0.113 -3.817,0.326 -1.994,-1.258 -4.355,-1.988 -6.887,-1.988 -7.149,0 -12.945,5.797 -12.945,12.947 0,2.389 0.65,4.625 1.779,6.547 -0.297,1.449 -0.451,2.951 -0.451,4.488 0,12.33 9.993,22.322 22.321,22.322 1.397,0 2.763,-0.129 4.087,-0.373 1.823,0.979 3.906,1.535 6.12,1.535 7.149,0 12.944,-5.795 12.944,-12.945 0,-2.064 -0.485,-4.015 -1.345,-5.748 z m -10.358,5.877 c -1.032,1.461 -2.559,2.619 -4.536,3.441 -1.957,0.813 -4.304,1.227 -6.975,1.227 -3.206,0 -5.895,-0.564 -7.992,-1.678 -1.5,-0.809 -2.736,-1.904 -3.676,-3.262 -0.947,-1.365 -1.428,-2.723 -1.428,-4.033 0,-0.816 0.313,-1.525 0.93,-2.105 0.611,-0.576 1.396,-0.867 2.33,-0.867 0.768,0 1.43,0.229 1.967,0.682 0.514,0.438 0.954,1.082 1.309,1.914 0.396,0.908 0.826,1.672 1.281,2.271 0.439,0.582 1.068,1.068 1.873,1.449 0.809,0.383 1.9,0.578 3.242,0.578 1.845,0 3.358,-0.395 4.496,-1.172 1.112,-0.758 1.651,-1.67 1.651,-2.785 0,-0.881 -0.282,-1.572 -0.861,-2.117 -0.608,-0.568 -1.409,-1.008 -2.382,-1.314 -1.015,-0.314 -2.393,-0.658 -4.096,-1.016 -2.316,-0.494 -4.284,-1.084 -5.85,-1.748 -1.602,-0.682 -2.892,-1.627 -3.835,-2.807 -0.958,-1.201 -1.444,-2.703 -1.444,-4.475 0,-1.686 0.51,-3.207 1.516,-4.516 0.998,-1.303 2.456,-2.316 4.333,-3.008 1.853,-0.686 4.056,-1.033 6.55,-1.033 1.993,0 3.745,0.232 5.208,0.686 1.473,0.457 2.712,1.076 3.688,1.838 0.981,0.768 1.712,1.586 2.171,2.439 0.461,0.859 0.697,1.717 0.697,2.545 0,0.799 -0.309,1.523 -0.916,2.156 -0.611,0.635 -1.383,0.957 -2.292,0.957 -0.826,0 -1.474,-0.203 -1.923,-0.598 -0.418,-0.371 -0.852,-0.947 -1.332,-1.775 -0.557,-1.057 -1.23,-1.891 -2.003,-2.479 -0.751,-0.572 -2.005,-0.859 -3.728,-0.859 -1.6,0 -2.901,0.32 -3.867,0.955 -0.932,0.609 -1.385,1.309 -1.385,2.139 0,0.51 0.146,0.934 0.447,1.299 0.316,0.391 0.765,0.727 1.33,1.012 0.586,0.295 1.191,0.529 1.796,0.695 0.62,0.174 1.661,0.428 3.089,0.758 1.807,0.389 3.467,0.822 4.935,1.293 1.487,0.477 2.771,1.061 3.819,1.744 1.068,0.695 1.915,1.588 2.516,2.656 0.604,1.072 0.908,2.395 0.908,3.932 10e-4,1.839 -0.525,3.517 -1.561,4.981 z"
   id="path21"
   style="fill:#6d6e71" />
<g
   id="g23">
	<path
   d="m 102.762,313.998 v -0.076 c -0.016,0.025 -0.033,0.051 -0.049,0.076 h 0.049 z"
   id="path25"
   style="fill:#6d6e71" />
	<path
   d="M 121.583,292 H 80.282 c -1.977,0 -3.58,1.564 -3.58,3.494 v 41.783 c 0,1.928 1.604,3.494 3.58,3.494 h 41.301 c 1.979,0 3.582,-1.566 3.582,-3.494 v -41.783 c 0,-1.93 -1.604,-3.494 -3.582,-3.494 z m -30.192,40.826 h -7.32 v -22.021 h 7.32 v 22.021 z m -3.659,-25.029 h -0.049 c -2.456,0 -4.044,-1.691 -4.044,-3.805 0,-2.16 1.638,-3.805 4.141,-3.805 2.504,0 4.045,1.645 4.094,3.805 0,2.113 -1.59,3.805 -4.142,3.805 z m 30.054,25.029 h -7.319 v -11.783 c 0,-2.959 -1.059,-4.979 -3.708,-4.979 -2.021,0 -3.226,1.361 -3.756,2.678 -0.193,0.471 -0.24,1.127 -0.24,1.785 v 12.299 h -7.32 c 0,0 0.096,-19.957 0,-22.021 h 7.32 v 3.117 c 0.973,-1.5 2.712,-3.637 6.598,-3.637 4.815,0 8.426,3.148 8.426,9.914 v 12.627 z"
   id="path27"
   style="fill:#6d6e71" />
</g>
<path
   d="m 276.136,307.592 1.897,2.488 c 0,0 3.914,-3.084 5.219,-1.543 1.305,1.543 6.283,20.164 7.946,23.6 1.451,3.014 5.454,6.998 9.843,4.152 4.387,-2.846 18.974,-15.299 21.584,-30.004 2.609,-14.703 -17.554,-11.625 -19.688,1.186 5.336,-3.205 8.186,1.303 5.455,6.404 -2.727,5.098 -5.218,8.422 -6.522,8.422 -1.302,0 -2.305,-3.41 -3.796,-9.373 -1.543,-6.164 -1.533,-17.268 -7.945,-16.01 -6.046,1.188 -13.993,10.678 -13.993,10.678 z"
   id="path29"
   style="fill:#6d6e71" />
<path
   d="m 216.332,313.779 c -0.431,-0.141 -0.847,-0.271 -1.247,-0.398 -3.057,-0.961 -4.9,-1.541 -4.9,-3.92 0,-1.93 1.489,-3.328 3.541,-3.328 1.573,0 2.744,0.652 3.795,2.123 0.099,0.137 0.283,0.186 0.436,0.105 l 3.085,-1.574 c 0.083,-0.041 0.146,-0.117 0.172,-0.207 0.027,-0.09 0.017,-0.186 -0.029,-0.268 -1.653,-2.936 -4.036,-4.363 -7.286,-4.363 -4.945,0 -8.142,2.992 -8.142,7.621 0,4.734 3.092,6.65 8.795,8.527 3.304,1.102 4.766,1.686 4.766,4.037 0,2.643 -2.384,4.543 -5.638,4.432 -3.408,-0.115 -4.441,-1.922 -5.74,-4.881 -2.196,-5.012 -4.696,-10.863 -4.721,-10.92 -2.509,-5.789 -7.483,-9.107 -13.648,-9.107 -8.144,0 -14.77,6.627 -14.77,14.773 0,8.143 6.626,14.77 14.77,14.77 4.442,0 8.605,-1.969 11.423,-5.404 0.082,-0.1 0.101,-0.234 0.05,-0.354 l -1.861,-4.297 c -0.053,-0.119 -0.172,-0.199 -0.303,-0.205 -0.135,-0.006 -0.256,0.068 -0.316,0.184 -1.758,3.359 -5.203,5.445 -8.992,5.445 -5.589,0 -10.135,-4.547 -10.135,-10.139 0,-5.592 4.546,-10.139 10.135,-10.139 4.068,0 7.797,2.414 9.277,6.018 l 4.605,10.504 0.531,1.18 c 2.083,4.85 5.141,7.023 9.933,7.041 5.696,0 9.991,-3.775 9.991,-8.779 -0.002,-5.027 -2.781,-6.912 -7.577,-8.477 z"
   id="path31"
   style="fill:#6d6e71" />
<g
   id="g33">
	<path
   d="m 414.331,309.428 c 0.275,-0.055 0.684,-0.146 1.146,-0.246 h 3.578 l 0.558,-0.822 c 0.011,-0.006 0.032,-0.008 0.044,-0.008 l 1.385,-2 c -0.02,0 -0.053,-0.004 -0.068,-0.004 l 0.145,-0.217 h -19.393 l 0.746,3.051 h 5.294 l -8.907,8.039 c -1.818,-2.51 -6.078,-7.74 -9.049,-12.068 h 6.666 v -2.322 l 0.076,-0.512 c -0.02,-0.004 -0.057,-0.01 -0.076,-0.01 V 302.1 h -22.112 v 3.053 h 6.558 c 2.545,1.99 12.279,14.145 12.684,15.357 0.162,1.135 0.311,7.836 -0.166,8.342 -0.957,1.012 -5.321,0.744 -6.375,0.818 l -0.364,2.076 c 1.923,0.057 8.181,-0.156 10.127,-0.156 3.833,0 10.548,-0.018 11.496,0.055 l 0.116,-2.178 c -0.968,-0.164 -6.254,-0.02 -6.984,-0.186 -0.162,-1.055 -0.339,-8.109 -0.178,-8.838 0.728,-2.107 11.837,-10.687 13.053,-11.015 z"
   id="path35"
   style="fill:#6d6e71" />
	<path
   d="m 417.549,326.102 2.972,0.236 3.46,-13.369 c -0.577,-0.02 -5.83,-0.516 -6.512,-0.648 l 0.08,13.781 z"
   id="path37"
   style="fill:#6d6e71" />
	<polygon
   points="417.053,331.508 418.557,331.639 420.182,331.76 420.659,328.564 418.946,328.48 417.037,328.244 "
   id="polygon39"
   style="fill:#6d6e71" />
</g>
<path
   d="m 502.863,291.471 v 11.381 h 11.379 v 8.787 h -11.379 v 12.619 c 0,2.855 -0.036,4.502 0.266,5.311 0.3,0.805 1.054,1.641 1.875,2.123 1.091,0.654 2.332,0.98 3.734,0.98 2.491,0 4.971,-0.809 7.436,-2.428 v 7.76 c -2.101,0.99 -4.007,1.688 -5.712,2.084 -1.706,0.396 -3.549,0.6 -5.53,0.6 -2.25,0 -3.578,-0.285 -5.306,-0.85 -1.729,-0.572 -3.204,-1.385 -4.423,-2.43 -1.226,-1.053 -2.068,-2.172 -2.54,-3.355 -0.473,-1.186 -0.709,-2.904 -0.709,-5.154 v -17.26 h -6.686 v -6.971 c 1.933,-0.627 4.174,-1.527 5.55,-2.699 1.382,-1.176 2.488,-2.582 3.32,-4.227 0.837,-1.641 1.412,-3.734 1.726,-6.271 h 6.999 z"
   id="path41"
   style="fill:#6d6e71" />
<g
   id="g43">
	<path
   d="m 612.157,317.697 c -0.063,-6.232 5.082,-9.221 5.313,-9.371 -2.891,-4.227 -7.395,-4.807 -8.997,-4.873 -3.831,-0.389 -7.477,2.256 -9.421,2.256 -1.939,0 -4.94,-2.199 -8.117,-2.143 -4.178,0.063 -8.028,2.43 -10.179,6.17 -4.339,7.527 -1.11,18.682 3.118,24.791 2.067,2.986 4.532,6.346 7.766,6.223 3.117,-0.123 4.294,-2.016 8.061,-2.016 3.769,0 4.826,2.016 8.123,1.953 3.352,-0.061 5.477,-3.043 7.527,-6.041 2.374,-3.469 3.351,-6.828 3.409,-6.998 -0.076,-0.035 -6.537,-2.509 -6.603,-9.951 z"
   id="path45"
   style="fill:#6d6e71" />
	<path
   d="m 605.961,299.41 c 1.716,-2.082 2.877,-4.975 2.561,-7.855 -2.475,0.1 -5.471,1.645 -7.248,3.725 -1.591,1.846 -2.983,4.785 -2.611,7.613 2.761,0.214 5.579,-1.405 7.298,-3.483 z"
   id="path47"
   style="fill:#6d6e71" />
</g>
<g
   id="g49">
	<g
   id="g51">
		<g
   id="g53">
			<defs
   id="defs55">
				<path
   d="m 692.7,333.221 c -2.559,-1.703 -5.27,-3.213 -9.179,-3.213 -2.372,0 -5.194,0.563 -8.687,1.971 l 4.622,-16.023 c 0.526,-0.215 1.04,-0.41 1.538,-0.59 1.686,-0.594 4.086,-1.268 6.721,-1.486 0.301,-0.025 0.598,-0.035 0.896,-0.035 2.627,0 5.025,0.918 6.748,1.801 0.736,0.396 1.433,0.828 2.125,1.258 -0.611,2.094 -3.835,13.1 -4.784,16.317"
   id="SVGID_1_" />
			</defs>
			<use
   id="use58"
   style="fill:#6d6e71;overflow:visible"
   x="0"
   y="0"
   width="1100.2791"
   height="916"
   xlink:href="#SVGID_1_" />
			<clipPath
   id="SVGID_2_">
				<use
   id="use61"
   style="overflow:visible"
   x="0"
   y="0"
   width="1100.2791"
   height="916"
   xlink:href="#SVGID_1_" />
			</clipPath>
		</g>
	</g>
	<g
   id="g63">
		<g
   id="g65">
			<defs
   id="defs67">
				<path
   d="m 705.072,338.246 c -4.046,0 -9.439,-3.324 -9.433,-3.32 l 4.607,-15.998 c 1.402,1.119 4.65,3.248 9.991,3.248 2.454,0 5.357,-0.453 8.727,-1.66 l -4.44,15.523 c -3.83,1.58 -6.892,2.207 -9.452,2.207"
   id="SVGID_3_" />
			</defs>
			<use
   id="use70"
   style="fill:#6d6e71;overflow:visible"
   x="0"
   y="0"
   width="1100.2791"
   height="916"
   xlink:href="#SVGID_3_" />
			<clipPath
   id="SVGID_4_">
				<use
   id="use73"
   style="overflow:visible"
   x="0"
   y="0"
   width="1100.2791"
   height="916"
   xlink:href="#SVGID_3_" />
			</clipPath>
		</g>
	</g>
	<g
   id="g75">
		<g
   id="g77">
			<defs
   id="defs79">
				<path
   d="m 703.053,297.057 v 0.012 c -0.949,3.25 -3.759,12.881 -4.705,16.088 m 0,-10e-4 c -2.471,-1.639 -5.126,-3.135 -8.873,-3.174 -0.041,0 -0.082,0 -0.125,0 -2.416,0 -5.291,0.641 -8.836,2.086 l 4.553,-15.986 c 3.45,-1.408 6.257,-1.975 8.599,-2.02 0.017,0 0.034,0 0.054,0 1.376,0 2.619,0.164 3.719,0.424 2.304,0.588 5.615,2.57 5.615,2.57"
   id="SVGID_5_" />
			</defs>
			<use
   id="use82"
   style="fill:#6d6e71;overflow:visible"
   x="0"
   y="0"
   width="1100.2791"
   height="916"
   xlink:href="#SVGID_5_" />
			<clipPath
   id="SVGID_6_">
				<use
   id="use85"
   style="overflow:visible"
   x="0"
   y="0"
   width="1100.2791"
   height="916"
   xlink:href="#SVGID_5_" />
			</clipPath>
		</g>
	</g>
	<g
   id="g87">
		<g
   id="g89">
			<defs
   id="defs91">
				<path
   d="m 711.282,318.43 c -4.026,0 -7.367,-1.389 -9.936,-3.105 -0.016,-0.01 -0.036,-0.021 -0.049,-0.035 l 4.67,-16.158 c 1.477,1.148 4.814,3.303 9.877,3.303 2.547,0 5.525,-0.545 8.926,-2.029 l -4.605,15.863 c -0.012,0.004 -0.021,0.01 -0.028,0.01 0,0.006 0,0.016 0,0.021 -3.234,1.524 -6.193,2.13 -8.855,2.13"
   id="SVGID_7_" />
			</defs>
			<use
   id="use94"
   style="fill:#6d6e71;overflow:visible"
   x="0"
   y="0"
   width="1100.2791"
   height="916"
   xlink:href="#SVGID_7_" />
			<clipPath
   id="SVGID_8_">
				<use
   id="use97"
   style="overflow:visible"
   x="0"
   y="0"
   width="1100.2791"
   height="916"
   xlink:href="#SVGID_7_" />
			</clipPath>
		</g>
	</g>
</g>
<g
   id="g99">
	<path
   d="m 782.834,204.541 v 6.52 h -7.404 v 14.926 h 12.215 v -21.445 h -4.811 z m 0,17.434 h -2.509 v -6.783 h 2.509 v 6.783 z"
   id="path101"
   style="fill:#6d6e71" />
	<path
   d="m 797.674,211.121 v 14.924 h 7.406 v 2.334 h -7.491 v 4.189 h 10.177 2.125 v -21.447 h -12.217 z m 7.407,10.797 h -2.51 v -6.787 h 2.51 v 6.787 z"
   id="path103"
   style="fill:#6d6e71" />
	<path
   d="m 812.428,211.121 v 14.924 h 7.403 v 2.334 h -7.49 v 4.189 h 10.179 2.123 v -21.447 h -12.215 z m 7.404,10.797 h -2.505 v -6.787 h 2.505 v 6.787 z"
   id="path105"
   style="fill:#6d6e71" />
	<rect
   width="4.9819999"
   height="15.014"
   x="790.125"
   y="211.03101"
   id="rect107"
   style="fill:#6d6e71" />
	<rect
   width="4.9819999"
   height="4.072"
   x="790.125"
   y="204.80499"
   id="rect109"
   style="fill:#6d6e71" />
</g>
<g
   id="g111">
	<g
   id="g113">
		<path
   d="m 314.637,391.295 h -29.166 c -5.225,4.16 -8.525,10.035 -8.525,16.59 0,6.043 2.788,11.516 7.311,15.598 l -1.383,13.824 12.814,-7.688 c 2.576,0.691 5.315,1.078 8.166,1.078 8.236,0 15.574,-3.162 20.509,-8.102 v -21.572 c 0,-5.365 -4.363,-9.728 -9.726,-9.728 z m -10.783,29.84 c -9.404,0 -17.35,-6.064 -17.35,-13.25 0,-7.182 7.945,-13.252 17.35,-13.252 9.405,0 17.35,6.07 17.35,13.252 0,7.185 -7.946,13.25 -17.35,13.25 z"
   id="path115"
   style="fill:#6d6e71" />
	</g>
</g>
<path
   d="m 401.503,429.613 c 0.143,-4.266 -3.458,-7.93 -8.024,-8.168 l -1.718,-0.09 c -1.659,-0.084 -3.063,-1.461 -3.063,-3.004 0,-1.49 1.383,-2.777 2.998,-2.777 h 11.291 c 1.615,0 2.861,1.385 2.861,2.998 v 10.393 c 0,4.602 3.744,8.342 8.345,8.342 h 1.364 c 4.602,0 8.345,-3.74 8.345,-8.342 v -34.926 c -0.203,-0.01 -0.396,-0.059 -0.602,-0.059 h -4.814 v 34.984 c 0,1.615 -1.313,2.924 -2.929,2.924 h -1.364 c -1.614,0 -2.929,-1.309 -2.929,-2.924 v -10.393 c 0,-4.602 -3.742,-8.346 -8.345,-8.346 h -11.29 c -4.602,0 -8.347,3.646 -8.347,8.125 0,4.402 3.678,8.18 8.194,8.412 l 1.719,0.092 c 1.613,0.084 2.939,1.262 2.896,2.578 -0.044,1.334 -1.466,2.455 -3.101,2.455 h -17.83 v 5.418 h 17.831 c 4.551,0.002 8.37,-3.45 8.512,-7.692 z"
   id="path117"
   style="fill:#6d6e71" />
<g
   id="g119">
	<path
   d="m 795.446,414.73 4.17,-7.264 c 0.312,-0.543 0.123,-1.24 -0.42,-1.557 l -2.966,-1.697 c -0.542,-0.314 -1.243,-0.125 -1.554,0.418 l -4.547,7.918 0,0 -5.009,8.723 0,0 -4.181,7.283 c -0.314,0.543 -0.123,1.24 0.42,1.551 l 2.965,1.705 c 0.543,0.313 1.243,0.123 1.557,-0.418 l 5.81,-10.121 0,0 3.755,-6.541 z"
   id="path121"
   style="fill:#6d6e71" />
	<path
   d="m 823.406,412.549 h -10.01 c 1.178,2.207 2.269,4.285 3.038,5.754 0.532,1.016 0.953,1.818 1.103,2.088 0.155,0.285 0.267,0.58 0.342,0.881 h 5.527 c 0.568,0 1.03,-0.461 1.03,-1.029 v -6.664 c 0,-0.569 -0.462,-1.03 -1.03,-1.03 z"
   id="path123"
   style="fill:#6d6e71" />
	<path
   d="m 799.073,412.549 -5.008,8.723 h 13.591 c -0.987,-1.947 -2.294,-4.732 -4.049,-8.723 h -4.534 z"
   id="path125"
   style="fill:#6d6e71" />
	<path
   d="m 787.754,412.549 h -11.521 c -0.569,0 -1.03,0.461 -1.03,1.029 v 6.664 c 0,0.568 0.461,1.029 1.03,1.029 h 6.514 l 5.007,-8.722 z"
   id="path127"
   style="fill:#6d6e71" />
	<path
   d="m 783.356,433.115 -2.965,-1.701 c -0.543,-0.313 -1.045,-0.057 -1.117,0.564 l -0.513,4.465 c -0.071,0.621 0.294,0.844 0.812,0.492 l 3.83,-2.611 c 0.518,-0.349 0.496,-0.896 -0.047,-1.209 z"
   id="path129"
   style="fill:#6d6e71" />
	<path
   d="m 815.731,421.383 c -0.017,-0.029 -0.039,-0.07 -0.061,-0.111 l 0,0 c -0.275,-0.51 -0.966,-1.836 -1.872,-3.557 -0.011,-0.023 -0.022,-0.043 -0.033,-0.066 -0.069,-0.133 -0.14,-0.266 -0.212,-0.402 -0.052,-0.098 -0.104,-0.197 -0.157,-0.297 -0.044,-0.086 -0.09,-0.172 -0.135,-0.26 -0.081,-0.152 -0.162,-0.305 -0.244,-0.461 -0.026,-0.049 -0.051,-0.098 -0.077,-0.146 -0.092,-0.176 -0.186,-0.352 -0.28,-0.531 -0.027,-0.051 -0.054,-0.102 -0.082,-0.154 -2.089,-3.949 -4.712,-8.811 -6.331,-11.367 -2.834,-4.48 -6.617,-11.947 -7.673,-11.416 -1.479,0.736 3.099,10.215 4.615,13.777 1.516,3.561 7.431,17.209 8.616,17.805 1.188,0.594 1.646,0.264 2.438,-0.064 0.793,-0.332 2.213,-1.428 1.488,-2.75 z"
   id="path131"
   style="fill:#6d6e71" />
	<path
   d="m 819.112,428.416 -1.412,-2.711 c -0.32,-0.613 -1.071,-0.863 -1.671,-0.557 l -1.703,0.877 c -0.6,0.311 -0.789,1.037 -0.42,1.623 l 1.787,2.822 c 0.369,0.582 1.147,0.773 1.726,0.424 l 1.216,-0.73 c 0.58,-0.348 0.795,-1.135 0.477,-1.748 z"
   id="path133"
   style="fill:#6d6e71" />
	<path
   d="m 818.676,432.34 c -0.444,0.426 -1.501,1.352 -0.223,3.148 1.275,1.801 4.126,1.881 4.502,3.076 10e-4,0 0.896,-9.142 -4.279,-6.224 z"
   id="path135"
   style="fill:#6d6e71" />
</g>
<g
   id="g137">
	<path
   d="M 815.168,315.162 H 784.73 c -4.839,0 -8.761,3.926 -8.761,8.764 v 7.041 c 0,4.838 3.922,8.762 8.761,8.762 h 30.438 c 4.838,0 8.761,-3.924 8.761,-8.762 v -7.041 c 0,-4.838 -3.923,-8.764 -8.761,-8.764 z m -24.043,5.483 h -2.829 v 14.061 h -2.734 v -14.061 h -2.828 v -2.393 h 8.392 v 2.393 z m 7.995,14.06 h -2.426 v -1.33 c -0.45,0.492 -0.914,0.867 -1.4,1.121 -0.484,0.264 -0.953,0.389 -1.409,0.389 -0.563,0 -0.981,-0.18 -1.269,-0.543 -0.281,-0.363 -0.426,-0.9 -0.426,-1.627 v -10.148 h 2.426 v 9.313 c 0,0.287 0.053,0.494 0.15,0.621 0.105,0.133 0.271,0.193 0.499,0.193 0.175,0 0.403,-0.084 0.676,-0.254 0.275,-0.172 0.524,-0.389 0.753,-0.652 v -9.221 h 2.426 v 12.138 z m 8.802,-2.506 c 0,0.857 -0.189,1.516 -0.57,1.977 -0.378,0.459 -0.931,0.686 -1.648,0.686 -0.478,0 -0.9,-0.086 -1.27,-0.264 -0.371,-0.176 -0.721,-0.447 -1.037,-0.822 v 0.93 h -2.453 v -16.453 h 2.453 v 5.299 c 0.328,-0.367 0.676,-0.65 1.039,-0.842 0.371,-0.195 0.743,-0.289 1.12,-0.289 0.769,0 1.354,0.256 1.759,0.773 0.406,0.518 0.607,1.275 0.607,2.27 v 6.735 z m 8.414,-3.271 h -4.641 v 2.287 c 0,0.639 0.077,1.082 0.236,1.33 0.162,0.248 0.436,0.369 0.822,0.369 0.403,0 0.684,-0.105 0.845,-0.314 0.157,-0.211 0.241,-0.67 0.241,-1.385 v -0.553 h 2.496 v 0.623 c 0,1.244 -0.302,2.182 -0.915,2.814 -0.604,0.625 -1.513,0.938 -2.723,0.938 -1.087,0 -1.944,-0.332 -2.567,-1 -0.621,-0.662 -0.938,-1.582 -0.938,-2.752 v -5.453 c 0,-1.049 0.345,-1.912 1.032,-2.574 0.687,-0.662 1.567,-0.992 2.655,-0.992 1.111,0 1.965,0.307 2.562,0.92 0.596,0.615 0.894,1.496 0.894,2.646 v 3.096 z"
   id="path139"
   style="fill:#6d6e71" />
	<path
   d="m 812.778,324.389 c -0.388,0 -0.662,0.109 -0.831,0.336 -0.171,0.213 -0.251,0.578 -0.251,1.088 v 1.227 h 2.145 v -1.227 c 0,-0.51 -0.087,-0.875 -0.256,-1.088 -0.165,-0.227 -0.438,-0.336 -0.807,-0.336 z"
   id="path141"
   style="fill:#6d6e71" />
	<path
   d="m 804.412,324.348 c -0.173,0 -0.346,0.037 -0.515,0.117 -0.169,0.078 -0.335,0.205 -0.5,0.371 v 7.563 c 0.195,0.195 0.389,0.346 0.575,0.432 0.188,0.084 0.38,0.131 0.585,0.131 0.299,0 0.516,-0.086 0.655,-0.26 0.138,-0.172 0.21,-0.447 0.21,-0.836 v -6.27 c 0,-0.412 -0.083,-0.721 -0.255,-0.934 -0.176,-0.209 -0.429,-0.314 -0.755,-0.314 z"
   id="path143"
   style="fill:#6d6e71" />
	<polygon
   points="791.791,310.945 791.791,303.426 795.37,292.818 792.245,292.818 790.341,300.064 790.148,300.064 788.151,292.818 785.053,292.818 788.715,303.764 788.715,310.945 "
   id="polygon145"
   style="fill:#6d6e71" />
	<path
   d="m 799.536,311.283 c 1.241,0 2.215,-0.326 2.926,-0.977 0.705,-0.654 1.059,-1.547 1.059,-2.691 v -6.908 c 0,-1.018 -0.361,-1.855 -1.079,-2.502 -0.725,-0.645 -1.65,-0.969 -2.781,-0.969 -1.241,0 -2.231,0.307 -2.966,0.92 -0.735,0.613 -1.102,1.436 -1.102,2.475 v 6.932 c 0,1.137 0.358,2.037 1.074,2.711 0.716,0.671 1.673,1.009 2.869,1.009 z m -1.133,-10.754 c 0,-0.291 0.104,-0.525 0.311,-0.709 0.211,-0.18 0.48,-0.268 0.813,-0.268 0.362,0 0.654,0.088 0.877,0.268 0.222,0.184 0.333,0.418 0.333,0.709 v 7.285 c 0,0.357 -0.109,0.641 -0.328,0.846 -0.219,0.205 -0.512,0.307 -0.882,0.307 -0.36,0 -0.64,-0.098 -0.833,-0.303 -0.193,-0.201 -0.291,-0.482 -0.291,-0.85 v -7.285 z"
   id="path147"
   style="fill:#6d6e71" />
	<path
   d="m 807.643,311.141 c 0.513,0 1.04,-0.146 1.584,-0.428 0.548,-0.285 1.072,-0.703 1.571,-1.248 v 1.48 h 2.733 v -13.371 h -2.733 v 10.15 c -0.253,0.291 -0.535,0.529 -0.84,0.719 -0.309,0.188 -0.563,0.281 -0.764,0.281 -0.256,0 -0.443,-0.07 -0.555,-0.215 -0.114,-0.141 -0.177,-0.369 -0.177,-0.684 v -10.252 h -2.728 v 11.176 c 0,0.797 0.161,1.393 0.479,1.787 0.323,0.402 0.795,0.605 1.43,0.605 z"
   id="path149"
   style="fill:#6d6e71" />
</g>
<path
   d="m 192.92,410.402 c 11.203,-3.221 20.559,3.363 20.559,3.363 l -7.711,2.082 -2.221,-4.127 c -2.09,-0.383 -4.471,-0.504 -7.002,-0.078 l 5.25,10.668 22.684,-6.533 c 0,0 -8.227,-12.92 -32.764,-8.746 -0.145,0.025 -0.271,0.061 -0.414,0.084 l -2.382,-4.838 -7.062,0.803 2.88,5.887 c -14.89,6.148 -8.292,20.646 -8.292,20.646 l 22.717,-6.539 -6.242,-12.672 z m -10.328,11.702 c 0,0 -2.189,-4.832 4.181,-8.975 l 3.388,6.934 -7.569,2.041 z"
   id="path151"
   style="fill:#6d6e71" />
<path
   d="m 524.413,411.422 -0.406,-0.84 -0.679,-0.531 c -0.888,-0.695 -5.376,0.045 -6.584,-1.053 -0.858,-0.789 -0.991,-2.211 -1.25,-4.131 -0.481,-3.734 -0.788,-3.926 -1.369,-5.186 -2.114,-4.488 -7.849,-7.863 -11.788,-8.332 h -10.672 c -8.395,0 -15.257,6.877 -15.257,15.271 v 17.813 c 0,8.379 6.862,15.242 15.257,15.242 h 17.533 c 8.396,0 15.215,-6.863 15.262,-15.242 l 0.095,-12.338 -0.142,-0.673 z M 491.86,403.83 h 8.461 c 1.613,0 2.922,1.311 2.922,2.91 0,1.596 -1.309,2.922 -2.922,2.922 h -8.461 c -1.615,0 -2.923,-1.326 -2.923,-2.922 0,-1.599 1.308,-2.91 2.923,-2.91 z m 17.191,23.285 H 491.86 c -1.615,0 -2.923,-1.328 -2.923,-2.906 0,-1.602 1.308,-2.906 2.923,-2.906 h 17.191 c 1.605,0 2.907,1.305 2.907,2.906 0,1.578 -1.301,2.906 -2.907,2.906 z"
   id="path153"
   style="fill:#6d6e71;fill-rule:evenodd" />
<path
   d="m 574.296,415.742 c 0,9.742 5.663,18.17 13.878,22.156 l -11.745,-32.18 c -1.368,3.065 -2.133,6.452 -2.133,10.024 z m 41.246,-1.244 c 0,-3.043 -1.096,-5.152 -2.031,-6.791 -1.247,-2.029 -2.416,-3.744 -2.416,-5.775 0,-2.264 1.712,-4.369 4.136,-4.369 0.104,0 0.211,0.014 0.316,0.021 -4.38,-4.014 -10.216,-6.467 -16.626,-6.467 -8.604,0 -16.172,4.416 -20.572,11.1 0.579,0.018 1.121,0.031 1.583,0.031 2.577,0 6.563,-0.316 6.563,-0.316 1.324,-0.074 1.481,1.871 0.154,2.031 0,0 -1.332,0.154 -2.817,0.234 l 8.969,26.668 5.388,-16.158 -3.838,-10.51 c -1.326,-0.08 -2.581,-0.234 -2.581,-0.234 -1.328,-0.08 -1.171,-2.105 0.157,-2.031 0,0 4.064,0.316 6.483,0.316 2.574,0 6.565,-0.316 6.565,-0.316 1.323,-0.074 1.48,1.871 0.153,2.031 0,0 -1.331,0.154 -2.816,0.234 l 8.899,26.465 2.457,-8.203 c 1.247,-3.201 1.874,-5.852 1.874,-7.961 z m -16.189,3.398 -7.39,21.469 c 2.205,0.648 4.536,1 6.957,1 2.865,0 5.617,-0.496 8.176,-1.398 -0.065,-0.105 -0.127,-0.215 -0.175,-0.336 l -7.568,-20.735 z m 21.171,-13.97 c 0.109,0.787 0.17,1.627 0.17,2.535 0,2.496 -0.469,5.305 -1.875,8.818 l -7.519,21.742 c 7.318,-4.266 12.239,-12.195 12.239,-21.279 10e-4,-4.283 -1.092,-8.306 -3.015,-11.816 z"
   id="path155"
   style="fill:#6d6e71" />
<g
   id="g157">
	<g
   id="g159">
		<path
   d="m 111.11,393.424 c -3.215,-1.459 -6.629,-2.209 -10.155,-2.209 -2.936,0 -5.82,0.568 -8.599,1.607 0.653,0.592 17.913,16.26 18.754,17.023 0,-1.132 0,-16.074 0,-16.421 l 0,0 z"
   id="path161"
   style="fill:#6d6e71" />
	</g>
	<g
   id="g163">
		<path
   d="m 88.281,436.875 c 0,-0.963 0,-20.041 0,-21.174 -0.823,0.746 -9.891,8.988 -10.174,9.246 1.974,4.949 5.575,9.145 10.174,11.928 l 0,0 z"
   id="path165"
   style="fill:#6d6e71" />
	</g>
	<g
   id="g167">
		<path
   d="m 76.333,415.844 c 0,2.111 0.317,4.264 0.896,6.396 0.664,-0.607 21.397,-19.445 21.824,-19.836 -0.414,-0.375 -9.036,-8.201 -9.318,-8.459 -8.268,4.244 -13.402,12.612 -13.402,21.899 l 0,0 z"
   id="path169"
   style="fill:#6d6e71" />
	</g>
	<g
   id="g171">
		<path
   d="m 90.868,426.545 c 0,0.512 0,11.398 0,11.75 2.503,1.125 5.124,1.82 7.818,2.07 h 4.516 c 8.508,-0.793 16.1,-6.039 19.875,-13.82 -0.889,0 -31.68,0 -32.209,0 l 0,0 z"
   id="path173"
   style="fill:#6d6e71" />
	</g>
	<g
   id="g175">
		<path
   d="m 113.706,394.836 c 0,0.977 0,28.592 0,29.115 0.504,0 10.09,0 10.479,0 0.916,-2.627 1.397,-5.352 1.397,-8.107 0,-8.561 -4.55,-16.549 -11.876,-21.008 l 0,0 z"
   id="path177"
   style="fill:#6d6e71" />
	</g>
</g>
<path
   d="m 921.48,226.725 v 9.891 h -0.004 l 0.004,0.9 c -9.597,4.842 -25.527,6.223 -34.718,0.025 -5.564,-3.754 -11.051,-11.217 -10.752,-20.656 0.285,-8.967 6.1,-16.996 14.095,-21.037 9.192,-4.65 23.066,-3.771 31.155,2.926 l -4.766,4.859 -3.088,0.877 1.643,-2.986 c -2.359,-2.371 -5.066,-4.09 -8.047,-5.041 -4.755,-1.523 -9.141,-0.682 -12.796,1.105 -7.485,3.666 -11.914,12.547 -10.194,21.938 1.813,9.895 9.467,17.83 19.508,18.664 2.959,0.25 6.198,0.102 9.066,-0.652 2.039,-0.658 2.023,-0.857 2.023,-2.094 v -8.719 l -10.055,0.299 5.177,-2.916 h 13.979 l -2.23,2.617 z"
   id="path179"
   style="fill:#6d6e71" />
<g
   id="g181">
	<path
   d="m 717.186,430.5 c -0.239,-0.002 -0.485,0.055 -0.715,0.162 -0.259,0.104 -0.523,0.223 -0.77,0.328 l -0.367,0.152 -0.476,0.189 v 0.006 c -5.168,2.096 -10.596,3.324 -15.619,3.432 -0.185,0.006 -0.369,0.006 -0.551,0.006 -7.898,0.004 -14.344,-3.66 -20.849,-7.27 -0.228,-0.119 -0.457,-0.182 -0.686,-0.182 -0.294,0 -0.593,0.109 -0.811,0.314 -0.219,0.205 -0.349,0.504 -0.347,0.807 -10e-4,0.395 0.212,0.756 0.507,0.99 6.104,5.299 12.793,10.223 21.788,10.227 0.176,0 0.354,-0.004 0.534,-0.008 5.722,-0.129 12.195,-2.061 17.217,-5.217 l 0.029,-0.02 c 0.658,-0.393 1.316,-0.84 1.936,-1.336 0.387,-0.287 0.652,-0.732 0.648,-1.197 -0.01,-0.824 -0.712,-1.383 -1.468,-1.383 z"
   id="path183"
   style="fill:#6d6e71;fill-rule:evenodd" />
	<path
   d="m 724.155,427.574 v -0.002 c -0.019,-0.504 -0.127,-0.885 -0.336,-1.203 l -0.021,-0.029 -0.025,-0.031 c -0.213,-0.232 -0.416,-0.32 -0.639,-0.418 -0.658,-0.254 -1.617,-0.389 -2.773,-0.393 -0.83,0 -1.747,0.078 -2.666,0.279 l -0.002,-0.061 -0.927,0.309 -0.017,0.008 -0.523,0.17 10e-4,0.023 c -0.614,0.254 -1.173,0.572 -1.691,0.947 -0.321,0.242 -0.591,0.561 -0.606,1.051 -0.007,0.266 0.127,0.572 0.354,0.754 0.223,0.182 0.484,0.242 0.713,0.242 0.055,0 0.105,-0.002 0.151,-0.01 l 0.044,-0.004 0.035,-0.006 c 0.453,-0.096 1.113,-0.16 1.885,-0.27 0.662,-0.072 1.365,-0.127 1.975,-0.127 0.433,-0.002 0.818,0.027 1.084,0.086 0.133,0.027 0.233,0.063 0.289,0.09 0.018,0.008 0.032,0.016 0.04,0.021 0.011,0.037 0.028,0.131 0.026,0.266 0.006,0.51 -0.213,1.455 -0.507,2.377 -0.29,0.924 -0.642,1.85 -0.875,2.465 -0.055,0.143 -0.09,0.297 -0.09,0.467 -0.005,0.248 0.096,0.547 0.311,0.746 0.209,0.199 0.479,0.277 0.707,0.277 h 0.009 c 0.342,-0.004 0.631,-0.139 0.881,-0.334 2.353,-2.115 3.169,-5.488 3.201,-7.389 l -0.008,-0.301 z"
   id="path185"
   style="fill:#6d6e71;fill-rule:evenodd" />
	<path
   d="m 702.657,404.914 c -1.382,0.104 -2.977,0.209 -4.571,0.42 -2.444,0.322 -4.889,0.744 -6.907,1.703 -3.932,1.594 -6.59,4.994 -6.59,9.988 0,6.273 4.038,9.461 9.142,9.461 1.699,0 3.083,-0.215 4.355,-0.531 2.021,-0.639 3.72,-1.807 5.741,-3.936 1.168,1.596 1.488,2.342 3.506,4.041 0.532,0.211 1.063,0.211 1.487,-0.105 1.277,-1.064 3.51,-2.979 4.677,-4.039 0.533,-0.426 0.427,-1.064 0.105,-1.592 -1.166,-1.49 -2.337,-2.766 -2.337,-5.637 v -9.564 c 0,-4.039 0.319,-7.76 -2.656,-10.52 -2.443,-2.23 -6.271,-3.082 -9.247,-3.082 h -1.276 c -5.419,0.314 -11.159,2.654 -12.435,9.352 -0.213,0.852 0.426,1.168 0.852,1.273 l 5.95,0.744 c 0.64,-0.105 0.957,-0.639 1.063,-1.166 0.531,-2.34 2.444,-3.51 4.569,-3.723 h 0.427 c 1.275,0 2.656,0.533 3.4,1.596 0.85,1.275 0.744,2.977 0.744,4.465 v 0.852 z m -1.168,12.645 c -0.744,1.484 -2.021,2.441 -3.403,2.766 -0.212,0 -0.529,0.105 -0.851,0.105 -2.336,0 -3.719,-1.809 -3.719,-4.465 0,-3.402 2.02,-4.996 4.569,-5.74 1.382,-0.318 2.977,-0.426 4.571,-0.426 v 1.277 c 0.001,2.444 0.106,4.356 -1.167,6.483 z"
   id="path187"
   style="fill:#6d6e71;fill-rule:evenodd" />
</g>
<path
   d="m 923.453,291.184 h -47.199 c -0.569,0 -1.029,0.461 -1.029,1.029 v 47.199 c 0,0.568 0.46,1.029 1.029,1.029 h 47.199 c 0.568,0 1.029,-0.461 1.029,-1.029 v -47.199 c 0,-0.568 -0.461,-1.029 -1.029,-1.029 z m -23.599,47.199 v -22.57 h -22.57 v -22.568 h 22.57 v 22.568 h 22.568 v 22.57 h -22.568 z"
   id="path189"
   style="fill:#6d6e71" />
<g
   id="g191">
	<path
   d="m 902.084,410.607 c 0.358,-0.229 0.7,-0.486 1.011,-0.779 0.866,-0.813 1.519,-1.855 1.793,-2.998 0.479,-1.715 -0.077,-3.203 -1.224,-4.027 -0.604,-0.434 -1.368,-0.689 -2.236,-0.689 h -5.033 l -0.162,0.689 -2.041,8.746 h 4.822 c 1.069,0 2.136,-0.354 3.07,-0.942 z m -2.992,-5.095 h 2.336 c 0.121,0 0.193,0.02 0.229,0.033 0.008,0.051 0.014,0.168 -0.043,0.367 l -0.018,0.063 -0.014,0.063 c -0.262,1.086 -1.509,2.113 -2.568,2.113 h -0.539 l 0.617,-2.639 z"
   id="path193"
   style="fill:#6d6e71" />
	<path
   d="m 921.561,404.158 c -0.98,-1.219 -2.217,-2.23 -3.62,-3.008 -0.462,-2.045 -1.364,-3.602 -2.252,-4.707 -2.394,-2.977 -6.313,-4.756 -10.485,-4.756 h -17.512 -2.721 l -0.597,2.652 -7.761,34.5 -0.932,4.145 h 4.248 3.357 l -0.801,3.568 -0.934,4.145 h 4.25 10.275 2.732 l 0.587,-2.666 1.93,-8.76 h 4.608 c 8.933,0 15.916,-5.494 17.791,-13.994 1.207,-5.461 -0.511,-9.06 -2.163,-11.119 z m -37.508,25.426 h -4.123 l 7.762,-34.5 h 17.512 c 3.241,0 6.815,1.467 8.564,4.574 0.603,1.07 0.988,2.336 1.069,3.805 0.057,1.021 -0.033,2.145 -0.303,3.367 -0.614,2.787 -1.892,5.113 -3.63,6.928 -2.656,2.775 -6.404,4.326 -10.58,4.389 -0.088,0.002 -0.173,0.01 -0.26,0.01 h -7.342 l -2.516,11.428 h -2.67 -3.483 z m 36.354,-15.039 c -1.572,7.133 -7.445,11.328 -14.471,11.328 h -7.341 l -2.517,11.428 h -10.275 l 0.971,-4.316 h 3.434 2.732 l 0.588,-2.668 1.928,-8.76 h 4.609 c 8.932,0 15.914,-5.494 17.789,-13.992 0.158,-0.721 0.264,-1.406 0.328,-2.064 2.009,1.923 3.139,4.903 2.225,9.044 z"
   id="path195"
   style="fill:#6d6e71" />
</g>
<g
   id="g197">
	<polygon
   points="989.62,197.461 989.62,199.68 991.834,199.68 991.834,193.053 989.62,193.053 989.62,195.242 987.593,195.242 987.593,193.053 985.378,193.053 985.378,199.68 987.593,199.68 987.593,197.461 "
   id="polygon199"
   style="fill:#6d6e71" />
	<polygon
   points="996.961,199.68 996.961,195.252 998.912,195.252 998.912,193.053 992.797,193.053 992.797,195.252 994.747,195.252 994.747,199.68 "
   id="polygon201"
   style="fill:#6d6e71" />
	<polygon
   points="1003.575,198.752 1003.612,198.752 1005.136,196.396 1005.136,199.68 1007.342,199.68 1007.342,193.053 1005.032,193.053 1003.612,195.385 1002.192,193.053 999.883,193.053 999.883,199.68 1002.049,199.68 1002.049,196.396 "
   id="polygon203"
   style="fill:#6d6e71" />
	<polygon
   points="1010.66,197.49 1010.66,193.053 1008.444,193.053 1008.444,199.68 1013.775,199.68 1013.775,197.49 "
   id="polygon205"
   style="fill:#6d6e71" />
	<path
   d="m 982.186,202.588 3.168,35.531 14.221,3.947 14.233,-3.945 3.173,-35.533 h -34.795 z m 27.922,11.619 h -10.525 -6.151 l 0.397,4.463 h 5.754 10.129 l -1.195,13.383 -8.934,2.475 -0.006,0.002 -8.928,-2.477 -0.623,-7 h 4.374 l 0.324,3.631 4.854,1.313 0.005,-0.002 0,0 4.859,-1.313 0.507,-5.652 h -5.366 l 0,0 h -9.738 l -1.176,-13.178 h 10.914 10.915 l -0.39,4.355 z"
   id="path207"
   style="fill:#6d6e71" />
</g>
<path
   d="m 975.404,317.463 c 6.19,0 12.009,2.418 16.382,6.816 4.381,4.398 6.794,10.256 6.794,16.492 h 9.538 c 0,-18.113 -14.676,-32.848 -32.714,-32.848 v 9.54 z m 0.014,-16.91 c 22.062,0 40.011,18.047 40.011,40.23 h 9.539 c 0,-27.445 -22.229,-49.77 -49.55,-49.77 v 9.54 z m 13.192,33.566 c 0,3.648 -2.959,6.607 -6.607,6.607 -3.648,0 -6.606,-2.959 -6.606,-6.607 0,-3.65 2.958,-6.607 6.606,-6.607 3.648,0 6.607,2.957 6.607,6.607 z"
   id="path209"
   style="fill:#6d6e71" />
<polygon
   points="975.079,422.504 975.079,410.656 980.57,410.656 980.57,417.012 1018.895,417.012 1018.895,410.656 1024.387,410.656 1024.387,422.504 "
   id="polygon211"
   style="fill:#6d6e71" />
<g
   id="g213">
	<path
   d="m 200.327,515.758 c 0.199,-0.066 0.4,-0.125 0.602,-0.184 -0.383,-0.867 -0.801,-1.736 -1.238,-2.594 -7.858,2.354 -15.399,2.184 -15.67,2.174 -0.005,0.164 -0.013,0.322 -0.013,0.486 0,3.922 1.479,7.496 3.911,10.199 -0.002,-0.004 -0.006,-0.008 -0.006,-0.008 0,0 4.177,-7.409 12.414,-10.073 z"
   id="path215"
   style="fill:#6d6e71" />
	<path
   d="m 198.425,510.631 c -2.642,-4.693 -5.464,-8.523 -5.667,-8.795 -4.257,2.01 -7.434,5.932 -8.424,10.658 0.403,0.004 6.763,0.084 14.091,-1.863 z"
   id="path217"
   style="fill:#6d6e71" />
	<path
   d="m 209.35,504.186 c -2.688,-2.369 -6.216,-3.807 -10.08,-3.807 -1.239,0 -2.443,0.15 -3.597,0.428 0.229,0.307 3.097,4.111 5.706,8.904 5.76,-2.16 7.934,-5.469 7.971,-5.525 z"
   id="path219"
   style="fill:#6d6e71" />
	<path
   d="m 195.616,500.822 c -0.018,0.002 -0.033,0.004 -0.05,0.012 0.029,-0.008 0.046,-0.012 0.046,-0.012 h 0.004 z"
   id="path221"
   style="fill:#6d6e71" />
	<path
   d="m 189.889,527.672 0.003,-0.006 c -0.113,-0.088 -0.233,-0.168 -0.344,-0.262 0.202,0.164 0.341,0.268 0.341,0.268 z"
   id="path223"
   style="fill:#6d6e71" />
	<path
   d="m 202.554,511.984 c 0.354,0.729 0.697,1.469 1.015,2.213 0.112,0.268 0.222,0.529 0.329,0.791 5.244,-0.66 10.409,0.451 10.63,0.496 -0.035,-3.619 -1.329,-6.939 -3.471,-9.539 -0.029,0.041 -2.476,3.578 -8.503,6.039 z"
   id="path225"
   style="fill:#6d6e71" />
	<path
   d="m 201.868,518.137 c -9.008,3.141 -11.947,9.469 -11.976,9.529 2.589,2.021 5.839,3.236 9.378,3.236 2.114,0 4.128,-0.43 5.959,-1.209 -0.226,-1.334 -1.112,-6.008 -3.261,-11.59 -0.033,0.012 -0.067,0.022 -0.1,0.034 z"
   id="path227"
   style="fill:#6d6e71" />
	<path
   d="m 199.27,491.016 c -13.6,0 -24.624,11.027 -24.624,24.625 0,13.6 11.024,24.623 24.624,24.623 13.6,0 24.625,-11.023 24.625,-24.623 0,-13.598 -11.025,-24.625 -24.625,-24.625 z m 16.467,31.582 c -0.447,1.061 -1.002,2.082 -1.648,3.035 -0.639,0.947 -1.373,1.836 -2.181,2.645 -0.809,0.807 -1.698,1.541 -2.644,2.182 -0.955,0.645 -1.978,1.199 -3.037,1.648 -1.079,0.455 -2.209,0.805 -3.357,1.041 -1.178,0.242 -2.389,0.365 -3.6,0.365 -1.211,0 -2.422,-0.123 -3.599,-0.365 -1.149,-0.236 -2.279,-0.586 -3.358,-1.041 -1.06,-0.449 -2.082,-1.004 -3.037,-1.648 -0.945,-0.641 -1.835,-1.375 -2.643,-2.182 -0.809,-0.809 -1.543,-1.697 -2.182,-2.645 -0.645,-0.953 -1.199,-1.975 -1.648,-3.035 -0.456,-1.08 -0.807,-2.209 -1.043,-3.359 -0.239,-1.178 -0.361,-2.387 -0.361,-3.598 0,-1.211 0.122,-2.422 0.361,-3.598 0.236,-1.15 0.587,-2.281 1.043,-3.359 0.449,-1.061 1.004,-2.084 1.648,-3.037 0.639,-0.947 1.373,-1.834 2.182,-2.645 0.808,-0.807 1.697,-1.539 2.643,-2.18 0.955,-0.646 1.978,-1.201 3.037,-1.65 1.079,-0.457 2.209,-0.807 3.358,-1.041 1.177,-0.24 2.388,-0.363 3.599,-0.363 1.211,0 2.422,0.123 3.6,0.363 1.148,0.234 2.278,0.584 3.357,1.041 1.06,0.449 2.082,1.004 3.037,1.65 0.945,0.641 1.835,1.373 2.644,2.18 0.808,0.811 1.542,1.697 2.181,2.645 0.646,0.953 1.201,1.977 1.648,3.037 0.457,1.078 0.807,2.209 1.042,3.359 0.241,1.176 0.364,2.387 0.364,3.598 0,1.211 -0.123,2.42 -0.364,3.598 -0.236,1.15 -0.585,2.279 -1.042,3.359 z"
   id="path229"
   style="fill:#6d6e71" />
	<path
   d="m 204.829,517.396 c 2.002,5.502 2.815,9.982 2.971,10.902 3.427,-2.313 5.861,-5.984 6.54,-10.238 -0.315,-0.101 -4.585,-1.453 -9.511,-0.664 z"
   id="path231"
   style="fill:#6d6e71" />
</g>
<path
   d="m 299.118,491.016 c -13.6,0 -24.625,11.027 -24.625,24.625 0,13.6 11.025,24.623 24.625,24.623 13.6,0 24.623,-11.023 24.623,-24.623 0,-13.598 -11.024,-24.625 -24.623,-24.625 z m 13.597,24.904 c -0.297,1.504 -1.043,3.074 -2.229,4.719 -2.568,3.141 -5.685,5.215 -9.361,6.225 h -0.065 c -3.786,1.02 -7.583,0.932 -11.382,-0.264 -3.313,-1.252 -5.991,-3.25 -8.01,-6.014 2.008,1.58 3.863,2.369 5.597,2.379 l 0.044,-0.02 c 2.842,0.188 5.268,-0.703 7.276,-2.68 0.011,-0.01 0.022,-0.02 0.032,-0.031 l -0.064,-0.076 c -1.164,0.053 -1.955,-0.299 -2.394,-1.055 -0.121,-0.506 0,-0.945 0.373,-1.318 0.208,-0.24 0.527,-0.461 0.933,-0.658 -2.052,0.055 -3.467,-0.658 -4.27,-2.148 0.615,-0.66 1.404,-0.977 2.36,-0.924 l 0.011,-0.031 c -2.437,-0.66 -3.721,-1.846 -3.841,-3.568 0.626,-0.186 1.272,-0.285 1.942,-0.273 v -0.033 c -1.898,-1.076 -2.854,-2.557 -2.843,-4.414 1.745,0.541 3.468,1.23 5.169,2.064 1.559,0.658 2.908,1.338 4.061,2.051 0.978,0.551 1.789,1.23 2.47,2.043 l 0.033,-0.033 0.175,-0.129 c 0.473,-1.791 1.263,-3.547 2.393,-5.291 l 0.022,-0.057 c 0.438,-0.635 1.01,-1.336 1.722,-2.096 0.342,-0.34 0.736,-0.658 1.187,-0.953 0.088,0.055 -0.044,0.361 -0.396,0.932 0.944,-0.801 1.844,-1.205 2.678,-1.229 0.187,0.186 -0.143,0.549 -0.987,1.064 0.669,-0.254 1.415,-0.418 2.228,-0.516 0.352,0.043 0.473,0.217 0.373,0.537 -0.285,0.395 -1.24,0.758 -2.854,1.109 -0.01,0 -0.021,0 -0.031,0.01 l 0.055,0.121 c 1.777,-0.068 3.324,0.494 4.642,1.668 0.022,0.023 0.044,0.043 0.065,0.055 1.559,1.504 2.458,3.16 2.711,4.984 1.383,0.492 2.776,0.482 4.193,-0.047 -0.385,1.035 -1.581,1.656 -3.611,1.879 -0.012,-0.014 -0.012,-0.014 -0.012,0 v 0.197 c 1.855,0.363 3.106,0.428 3.742,0.207 l 0.022,0.035 c -0.856,1.12 -2.239,1.645 -4.159,1.579 z"
   id="path233"
   style="fill:#6d6e71" />
<path
   d="m 398.278,491.016 c -13.6,0 -24.625,11.027 -24.625,24.625 0,13.6 11.025,24.623 24.625,24.623 13.6,0 24.625,-11.023 24.625,-24.623 0,-13.598 -11.026,-24.625 -24.625,-24.625 z m -9.443,32.254 c -4.281,0 -7.751,-3.467 -7.751,-7.748 0,-4.283 3.47,-7.75 7.751,-7.75 4.28,0 7.749,3.467 7.749,7.75 0,4.281 -3.468,7.748 -7.749,7.748 z m 19.447,0 c -4.281,0 -7.75,-3.467 -7.75,-7.748 0,-4.283 3.469,-7.75 7.75,-7.75 4.28,0 7.75,3.467 7.75,7.75 0,4.281 -3.47,7.748 -7.75,7.748 z"
   id="path235"
   style="fill:#6d6e71" />
<path
   d="m 499.125,491.016 c -13.601,0 -24.625,11.027 -24.625,24.625 0,13.6 11.024,24.623 24.625,24.623 13.601,0 24.624,-11.023 24.624,-24.623 0,-13.598 -11.024,-24.625 -24.624,-24.625 z m 6.618,38.968 c -1.015,0 -6.633,-0.133 -8.067,-0.133 -1.434,0 -8.912,-2.332 -8.912,-10.559 0,-1.465 -0.001,-2.938 -0.005,-4.404 -0.006,-1.367 -0.034,-2.732 -0.039,-4.09 -0.001,-0.396 -0.003,-0.793 -0.005,-1.189 -0.01,-2.072 -0.185,-4.404 0.481,-6.395 0.51,-1.518 1.716,-2.125 3.201,-2.125 3.594,0 3.834,3.664 3.844,7.344 h 10.387 c 1.646,0 2.873,1.668 2.873,4.221 0,2.551 -2.661,3.123 -4.055,3.123 h -9.32 c -0.047,1.563 -0.097,2.834 -0.097,3.607 0,1.625 0.634,3.385 4.603,3.385 h 5.578 c 1.393,0 3.46,1.055 3.46,4.002 -0.001,2.944 -2.914,3.213 -3.927,3.213 z"
   id="path237"
   style="fill:#6d6e71" />
<path
   d="m 599.608,491.016 c -13.6,0 -24.625,11.027 -24.625,24.625 0,13.6 11.025,24.623 24.625,24.623 13.6,0 24.625,-11.023 24.625,-24.623 0,-13.598 -11.025,-24.625 -24.625,-24.625 z m 6.518,24.521 h -4.264 c 0,6.814 0,15.207 0,15.207 h -6.321 c 0,0 0,-8.307 0,-15.207 h -3.005 v -5.369 h 3.005 v -3.479 c 0,-2.49 1.183,-6.377 6.379,-6.377 l 4.68,0.018 v 5.215 c 0,0 -2.846,0 -3.398,0 -0.554,0 -1.339,0.277 -1.339,1.461 v 3.162 h 4.817 l -0.554,5.369 z"
   id="path239"
   style="fill:#6d6e71" />
<g
   id="g241">
	<path
   d="m 706.085,515.598 c -0.659,-0.43 -1.47,-0.799 -2.405,-1.098 -0.926,-0.297 -1.971,-0.572 -3.109,-0.814 -0.898,-0.209 -1.555,-0.369 -1.945,-0.477 -0.382,-0.105 -0.763,-0.254 -1.133,-0.441 -0.355,-0.178 -0.638,-0.391 -0.838,-0.637 -0.188,-0.23 -0.281,-0.498 -0.281,-0.818 0,-0.52 0.286,-0.963 0.873,-1.348 0.608,-0.398 1.428,-0.602 2.436,-0.602 1.086,0 1.876,0.184 2.35,0.545 0.485,0.369 0.91,0.895 1.262,1.561 0.303,0.52 0.575,0.885 0.838,1.115 0.283,0.252 0.691,0.379 1.212,0.379 0.573,0 1.06,-0.203 1.444,-0.604 0.383,-0.396 0.577,-0.854 0.577,-1.357 0,-0.521 -0.149,-1.063 -0.439,-1.604 -0.289,-0.539 -0.75,-1.055 -1.368,-1.537 -0.613,-0.48 -1.396,-0.869 -2.322,-1.16 -0.922,-0.285 -2.025,-0.432 -3.282,-0.432 -1.57,0 -2.959,0.221 -4.125,0.652 -1.184,0.438 -2.102,1.074 -2.73,1.895 -0.634,0.826 -0.955,1.783 -0.955,2.846 0,1.115 0.306,2.063 0.911,2.82 0.594,0.742 1.406,1.336 2.415,1.766 0.985,0.42 2.226,0.789 3.686,1.104 1.073,0.225 1.94,0.439 2.579,0.639 0.613,0.191 1.119,0.471 1.501,0.828 0.365,0.342 0.544,0.779 0.544,1.334 0,0.703 -0.34,1.275 -1.041,1.754 -0.717,0.49 -1.67,0.738 -2.833,0.738 -0.845,0 -1.533,-0.123 -2.043,-0.363 -0.507,-0.24 -0.902,-0.547 -1.179,-0.914 -0.287,-0.379 -0.559,-0.859 -0.808,-1.43 -0.224,-0.523 -0.501,-0.932 -0.825,-1.205 -0.338,-0.287 -0.755,-0.432 -1.238,-0.432 -0.589,0 -1.082,0.184 -1.469,0.547 -0.389,0.363 -0.586,0.813 -0.586,1.328 0,0.822 0.304,1.68 0.9,2.539 0.592,0.854 1.37,1.545 2.315,2.055 1.322,0.701 3.015,1.059 5.035,1.059 1.683,0 3.161,-0.262 4.395,-0.773 1.245,-0.52 2.206,-1.248 2.856,-2.166 0.654,-0.928 0.984,-1.982 0.984,-3.141 0,-0.967 -0.191,-1.801 -0.572,-2.477 -0.38,-0.672 -0.913,-1.237 -1.587,-1.674 z"
   id="path243"
   style="fill:#6d6e71" />
	<path
   d="m 700.455,491.016 c -13.6,0 -24.624,11.027 -24.624,24.625 0,13.6 11.024,24.623 24.624,24.623 13.601,0 24.625,-11.023 24.625,-24.623 0,-13.598 -11.025,-24.625 -24.625,-24.625 z m 6.021,39.947 c -1.394,0 -2.707,-0.352 -3.854,-0.969 -0.836,0.152 -1.695,0.234 -2.574,0.234 -7.768,0 -14.063,-6.297 -14.063,-14.063 0,-0.969 0.097,-1.914 0.284,-2.828 -0.711,-1.211 -1.121,-2.619 -1.121,-4.125 0,-4.504 3.65,-8.156 8.155,-8.156 1.597,0 3.082,0.461 4.339,1.254 0.781,-0.137 1.586,-0.207 2.406,-0.207 7.766,0 14.063,6.297 14.063,14.063 0,1.035 -0.113,2.045 -0.326,3.018 0.543,1.092 0.85,2.32 0.85,3.623 -0.002,4.504 -3.654,8.156 -8.159,8.156 z"
   id="path245"
   style="fill:#6d6e71" />
</g>
<g
   id="g247">
	<rect
   width="1.756"
   height="4.75"
   x="785.55298"
   y="513.039"
   id="rect249"
   style="fill:#6d6e71" />
	<rect
   width="1.758"
   height="4.75"
   x="801.12402"
   y="512.99799"
   id="rect251"
   style="fill:#6d6e71" />
	<path
   d="m 799.616,491.016 c -13.6,0 -24.625,11.027 -24.625,24.625 0,13.6 11.025,24.623 24.625,24.623 13.6,0 24.625,-11.023 24.625,-24.623 0,-13.598 -11.026,-24.625 -24.625,-24.625 z m -8.94,29.582 h -8.551 V 510.15 h 5.184 v -4.564 h 3.367 v 15.012 z m 5.224,0.039 h -3.487 v -10.508 h 3.487 v 10.508 z m 0,-12.016 h -3.487 v -2.85 h 3.487 v 2.85 z m 10.349,16.582 h -1.487 -7.124 v -2.932 h 5.244 v -1.635 h -5.185 v -10.445 h 8.552 v 15.012 z m 10.326,0 h -1.486 -7.124 v -2.932 h 5.243 v -1.635 h -5.184 v -10.445 h 8.551 v 15.012 z"
   id="path253"
   style="fill:#6d6e71" />
	<rect
   width="1.755"
   height="4.75"
   x="811.453"
   y="512.99799"
   id="rect255"
   style="fill:#6d6e71" />
</g>
<path
   d="m 899.462,491.016 c -13.601,0 -24.625,11.027 -24.625,24.625 0,13.6 11.024,24.623 24.625,24.623 13.6,0 24.625,-11.023 24.625,-24.623 0,-13.598 -11.025,-24.625 -24.625,-24.625 z m 12.644,30.439 v 6.232 h -0.003 l 0.003,0.564 c -6.046,3.053 -16.083,3.922 -21.871,0.018 -3.507,-2.365 -6.963,-7.066 -6.774,-13.016 0.18,-5.648 3.842,-10.705 8.879,-13.252 5.791,-2.93 14.532,-2.375 19.628,1.844 l -3.003,3.061 -1.945,0.553 1.034,-1.879 c -1.484,-1.496 -3.19,-2.578 -5.068,-3.18 -2.995,-0.957 -5.758,-0.428 -8.061,0.699 -4.717,2.309 -7.506,7.902 -6.424,13.818 1.143,6.234 5.965,11.234 12.291,11.76 1.864,0.158 3.904,0.064 5.711,-0.412 1.284,-0.414 1.275,-0.539 1.275,-1.318 v -5.492 l -6.336,0.188 3.263,-1.838 h 8.807 l -1.406,1.65 z"
   id="path257"
   style="fill:#6d6e71" />
<g
   id="g259">
	<polygon
   points="1003.338,519.6 1002.985,523.559 999.583,524.479 999.579,524.479 996.181,523.559 995.956,521.02 992.892,521.02 993.33,525.918 999.579,527.652 999.583,527.65 1005.836,525.918 1006.673,516.551 999.583,516.551 995.555,516.551 995.277,513.428 999.583,513.428 1006.951,513.428 1007.223,510.377 999.583,510.377 991.943,510.377 992.766,519.6 999.583,519.6 "
   id="polygon261"
   style="fill:#6d6e71" />
	<path
   d="m 998.912,491.016 c -13.601,0 -24.625,11.027 -24.625,24.625 0,13.6 11.024,24.623 24.625,24.623 13.601,0 24.625,-11.023 24.625,-24.623 0,-13.598 -11.025,-24.625 -24.625,-24.625 z m 6.874,7.603 h 1.551 v 3.107 h 2.181 v 1.531 h -3.731 v -4.638 z m -5.993,0 h 1.616 l 0.994,1.629 0.993,-1.629 h 1.617 v 4.639 h -1.544 v -2.299 l -1.066,1.648 h -0.026 l -1.068,-1.648 v 2.299 h -1.516 v -4.639 z m -4.96,0 h 4.281 v 1.539 h -1.366 v 3.1 h -1.55 v -3.1 h -1.365 v -1.539 z m -5.193,0 h 1.55 v 1.533 h 1.418 v -1.533 h 1.551 v 4.639 h -1.551 v -1.553 h -1.418 v 1.553 h -1.55 v -4.639 z m 19.902,31.547 -9.964,2.764 -9.954,-2.766 -2.218,-24.871 h 24.355 l -2.219,24.873 z"
   id="path263"
   style="fill:#6d6e71" />
</g>
<g
   id="g265">
	<path
   d="m 100.958,590.484 c -13.6,0 -24.625,11.025 -24.625,24.625 0,13.602 11.025,24.625 24.625,24.625 13.599,0 24.624,-11.023 24.624,-24.625 0,-13.599 -11.026,-24.625 -24.624,-24.625 z m 13.714,36.586 c 0,1.096 -0.909,1.982 -2.031,1.982 H 89.225 c -1.123,0 -2.031,-0.887 -2.031,-1.982 v -23.689 c 0,-1.094 0.908,-1.982 2.031,-1.982 h 23.416 c 1.122,0 2.031,0.889 2.031,1.982 v 23.689 z"
   id="path267"
   style="fill:#6d6e71" />
	<path
   d="m 105.71,611.77 c -2.202,0 -3.188,1.209 -3.741,2.061 v 0.041 h -0.027 c 0.01,-0.012 0.02,-0.027 0.027,-0.041 v -1.768 H 97.82 c 0.054,1.17 0,12.484 0,12.484 h 4.149 v -6.973 c 0,-0.375 0.027,-0.744 0.137,-1.012 0.301,-0.744 0.984,-1.52 2.13,-1.52 1.503,0 2.103,1.146 2.103,2.824 v 6.68 h 4.15 v -7.158 c 0,-3.835 -2.048,-5.618 -4.779,-5.618 z"
   id="path269"
   style="fill:#6d6e71" />
	<path
   d="m 93.475,606.041 c -1.419,0 -2.348,0.934 -2.348,2.158 0,1.197 0.9,2.158 2.293,2.158 h 0.027 c 1.447,0 2.349,-0.961 2.349,-2.158 -0.027,-1.224 -0.901,-2.158 -2.321,-2.158 z"
   id="path271"
   style="fill:#6d6e71" />
	<rect
   width="4.151"
   height="12.484"
   x="91.373001"
   y="612.06299"
   id="rect273"
   style="fill:#6d6e71" />
</g>
<path
   d="m 199.27,590.484 c -13.6,0 -24.624,11.025 -24.624,24.625 0,13.602 11.024,24.625 24.624,24.625 13.6,0 24.625,-11.023 24.625,-24.625 0,-13.599 -11.025,-24.625 -24.625,-24.625 z m 9.591,35.008 c -3.354,-0.012 -5.495,-1.531 -6.954,-4.928 l -0.371,-0.826 -3.224,-7.352 c -1.036,-2.521 -3.646,-4.215 -6.494,-4.215 -3.912,0 -7.095,3.186 -7.095,7.098 0,3.914 3.183,7.1 7.095,7.1 2.651,0 5.063,-1.463 6.294,-3.811 0.043,-0.082 0.129,-0.135 0.222,-0.129 0.093,0.002 0.175,0.057 0.212,0.143 l 1.303,3.008 c 0.036,0.084 0.021,0.178 -0.035,0.248 -1.971,2.402 -4.886,3.779 -7.995,3.779 -5.701,0 -10.339,-4.639 -10.339,-10.338 0,-5.701 4.638,-10.34 10.339,-10.34 4.315,0 7.798,2.324 9.554,6.373 0.018,0.043 1.768,4.139 3.305,7.646 0.908,2.072 1.633,3.334 4.018,3.414 2.278,0.082 3.946,-1.25 3.946,-3.102 0,-1.643 -1.022,-2.053 -3.335,-2.822 -3.992,-1.316 -6.156,-2.658 -6.156,-5.973 0,-3.24 2.236,-5.334 5.699,-5.334 2.273,0 3.941,0.998 5.1,3.055 0.032,0.057 0.039,0.125 0.021,0.188 -0.019,0.061 -0.063,0.115 -0.121,0.145 l -2.159,1.104 c -0.105,0.055 -0.235,0.021 -0.305,-0.074 -0.735,-1.029 -1.555,-1.488 -2.656,-1.488 -1.436,0 -2.479,0.979 -2.479,2.33 0,1.666 1.291,2.072 3.431,2.744 0.279,0.086 0.571,0.182 0.872,0.281 3.358,1.094 5.303,2.412 5.303,5.932 -0.003,3.504 -3.009,6.144 -6.996,6.144 z"
   id="path275"
   style="fill:#6d6e71" />
<path
   d="m 299.118,590.484 c -13.6,0 -24.625,11.025 -24.625,24.625 0,13.602 11.025,24.625 24.625,24.625 13.6,0 24.623,-11.023 24.623,-24.625 0,-13.599 -11.024,-24.625 -24.623,-24.625 z m 14.263,18.561 c -1.645,9.268 -10.834,17.113 -13.598,18.906 -2.766,1.789 -5.287,-0.721 -6.2,-2.617 -1.048,-2.164 -4.186,-13.896 -5.007,-14.869 -0.822,-0.973 -3.287,0.973 -3.287,0.973 l -1.195,-1.57 c 0,0 5.006,-5.977 8.815,-6.727 4.039,-0.789 4.032,6.203 5.005,10.088 0.939,3.758 1.57,5.904 2.391,5.904 0.822,0 2.392,-2.092 4.109,-5.305 1.722,-3.215 -0.074,-6.055 -3.438,-4.035 1.347,-8.068 14.05,-10.01 12.405,-0.748 z"
   id="path277"
   style="fill:#6d6e71" />
<path
   d="m 398.278,590.484 c -13.6,0 -24.625,11.025 -24.625,24.625 0,13.602 11.025,24.625 24.625,24.625 13.6,0 24.625,-11.023 24.625,-24.625 0,-13.599 -11.026,-24.625 -24.625,-24.625 z m 10.818,20.036 c -0.851,0.229 -8.626,6.234 -9.138,7.711 -0.113,0.51 0.011,5.445 0.124,6.186 0.512,0.115 4.212,0.016 4.891,0.129 l -0.083,1.525 c -0.663,-0.051 -5.364,-0.039 -8.047,-0.039 -1.362,0 -5.743,0.15 -7.089,0.111 l 0.255,-1.453 c 0.737,-0.053 3.793,0.137 4.462,-0.574 0.334,-0.355 0.229,-5.047 0.117,-5.84 -0.283,-0.85 -7.098,-9.357 -8.878,-10.75 h -4.591 v -2.135 h 15.479 v 0.145 c 0.014,0 0.039,0.002 0.053,0.006 l -0.053,0.359 v 1.625 h -4.667 c 2.08,3.029 5.063,6.691 6.335,8.447 l 6.234,-5.627 h -3.706 l -0.522,-2.137 h 13.576 l -0.102,0.152 c 0.012,0 0.033,0.004 0.048,0.004 l -0.97,1.398 c -0.008,0 -0.023,0.004 -0.031,0.006 l -0.39,0.576 h -2.505 c -0.323,0.073 -0.609,0.135 -0.802,0.175 z m 4.096,15.63 -1.136,-0.084 -1.055,-0.092 -0.011,-2.283 1.337,0.164 1.198,0.059 -0.333,2.236 z m 0.238,-3.793 -2.081,-0.168 -0.056,-9.646 c 0.478,0.094 4.154,0.441 4.559,0.455 l -2.422,9.359 z"
   id="path279"
   style="fill:#6d6e71" />
<path
   d="m 499.125,590.484 c -13.601,0 -24.625,11.025 -24.625,24.625 0,13.602 11.024,24.625 24.625,24.625 13.601,0 24.624,-11.023 24.624,-24.625 0,-13.599 -11.024,-24.625 -24.624,-24.625 z m 8.585,38.248 c -1.324,0.621 -2.524,1.061 -3.599,1.313 -1.075,0.252 -2.236,0.377 -3.484,0.377 -1.418,0 -2.254,-0.178 -3.343,-0.533 -1.089,-0.359 -2.019,-0.873 -2.786,-1.531 -0.771,-0.664 -1.303,-1.371 -1.602,-2.115 -0.297,-0.746 -0.445,-1.828 -0.445,-3.248 v -10.873 h -4.212 v -4.391 c 1.218,-0.395 2.63,-0.963 3.496,-1.701 0.872,-0.74 1.567,-1.627 2.093,-2.664 0.526,-1.033 0.889,-2.35 1.086,-3.951 h 4.41 v 7.174 h 7.168 v 5.533 h -7.168 v 7.951 c 0,1.799 -0.023,2.836 0.167,3.344 0.189,0.508 0.664,1.035 1.182,1.34 0.687,0.41 1.469,0.617 2.353,0.617 1.57,0 3.131,-0.512 4.685,-1.531 v 4.889 z"
   id="path281"
   style="fill:#6d6e71" />
<path
   d="m 599.608,590.484 c -13.6,0 -24.625,11.025 -24.625,24.625 0,13.602 11.025,24.625 24.625,24.625 13.6,0 24.625,-11.023 24.625,-24.625 0,-13.599 -11.025,-24.625 -24.625,-24.625 z m 1.412,9.987 c 1.117,-1.311 3.006,-2.283 4.564,-2.346 0.199,1.816 -0.532,3.637 -1.613,4.947 -1.083,1.309 -2.857,2.328 -4.598,2.193 -0.234,-1.779 0.643,-3.634 1.647,-4.794 z m 8.867,24.799 c -1.293,1.889 -2.632,3.771 -4.744,3.809 -2.076,0.039 -2.743,-1.23 -5.115,-1.23 -2.373,0 -3.115,1.193 -5.08,1.27 -2.037,0.076 -3.589,-2.037 -4.892,-3.92 -2.665,-3.848 -4.698,-10.875 -1.964,-15.619 1.354,-2.357 3.779,-3.846 6.411,-3.887 2.003,-0.037 3.893,1.35 5.114,1.35 1.226,0 3.521,-1.666 5.936,-1.42 1.01,0.041 3.847,0.406 5.668,3.07 -0.146,0.092 -3.386,1.977 -3.348,5.902 0.043,4.689 4.113,6.246 4.16,6.27 -0.036,0.106 -0.652,2.221 -2.146,4.405 z"
   id="path283"
   style="fill:#6d6e71" />
<path
   d="m 700.455,590.484 c -13.6,0 -24.624,11.025 -24.624,24.625 0,13.602 11.024,24.625 24.624,24.625 13.601,0 24.625,-11.023 24.625,-24.625 0,-13.599 -11.025,-24.625 -24.625,-24.625 z m -9.249,11.866 c 2.174,-0.889 3.942,-1.244 5.418,-1.271 0.01,0 0.021,0 0.033,0 0.866,0 1.649,0.102 2.343,0.266 1.45,0.369 3.537,1.621 3.537,1.621 v 0.006 c -0.599,2.049 -2.368,8.117 -2.964,10.135 -1.557,-1.031 -3.229,-1.977 -5.59,-1.996 -0.026,0 -0.052,0 -0.08,0 -1.521,0 -3.332,0.398 -5.566,1.313 l 2.869,-10.074 z m -0.975,21.371 c -1.494,0 -3.271,0.355 -5.472,1.244 l 2.911,-10.096 c 0.332,-0.137 0.656,-0.258 0.97,-0.371 1.062,-0.375 2.574,-0.801 4.233,-0.936 0.189,-0.016 0.377,-0.025 0.564,-0.025 1.656,0 3.166,0.58 4.252,1.137 0.464,0.25 0.902,0.521 1.338,0.793 -0.385,1.32 -2.416,8.254 -3.014,10.277 -1.611,-1.07 -3.319,-2.023 -5.782,-2.023 z m 19.532,3.8 c -2.413,0.996 -4.341,1.393 -5.954,1.393 -2.55,0 -5.948,-2.098 -5.943,-2.092 l 2.903,-10.082 c 0.883,0.707 2.929,2.049 6.294,2.049 1.547,0 3.375,-0.285 5.498,-1.047 l -2.798,9.779 z m 3.554,-12.455 c -0.008,0.002 -0.013,0.004 -0.018,0.004 0,0.008 0,0.014 0,0.018 -2.037,0.959 -3.901,1.342 -5.578,1.342 -2.537,0 -4.643,-0.877 -6.26,-1.957 -0.01,-0.008 -0.023,-0.014 -0.03,-0.023 l 2.941,-10.178 c 0.931,0.723 3.032,2.08 6.223,2.08 1.604,0 3.48,-0.344 5.623,-1.277 l -2.901,9.991 z"
   id="path285"
   style="fill:#6d6e71" />
<g
   id="g287">
	<polygon
   points="790.885,617.182 790.885,626.039 792.608,626.039 792.608,617.182 794.39,617.182 794.39,615.674 789.102,615.674 789.102,617.182 "
   id="polygon289"
   style="fill:#6d6e71" />
	<path
   d="m 799.683,609.822 c 0.233,0 0.419,-0.063 0.556,-0.189 0.138,-0.131 0.207,-0.309 0.207,-0.533 v -4.59 c 0,-0.184 -0.07,-0.334 -0.211,-0.445 -0.14,-0.115 -0.324,-0.172 -0.552,-0.172 -0.21,0 -0.38,0.057 -0.513,0.172 -0.13,0.111 -0.195,0.262 -0.195,0.445 v 4.59 c 0,0.23 0.061,0.408 0.184,0.533 0.121,0.127 0.297,0.189 0.524,0.189 z"
   id="path291"
   style="fill:#6d6e71" />
	<path
   d="m 803.482,618.299 c -0.238,0 -0.473,0.061 -0.706,0.182 -0.229,0.121 -0.448,0.301 -0.654,0.533 v -3.34 h -1.545 v 10.365 h 1.545 v -0.586 c 0.199,0.236 0.419,0.408 0.653,0.52 0.231,0.111 0.499,0.166 0.8,0.166 0.451,0 0.801,-0.143 1.038,-0.432 0.24,-0.291 0.36,-0.705 0.36,-1.246 v -4.244 c 0,-0.627 -0.127,-1.104 -0.384,-1.428 -0.254,-0.326 -0.624,-0.49 -1.107,-0.49 z m -0.085,5.951 c 0,0.246 -0.045,0.42 -0.132,0.527 -0.089,0.109 -0.225,0.162 -0.413,0.162 -0.129,0 -0.25,-0.029 -0.369,-0.082 -0.117,-0.053 -0.239,-0.146 -0.361,-0.27 v -4.764 c 0.104,-0.107 0.209,-0.186 0.314,-0.234 0.106,-0.053 0.215,-0.076 0.324,-0.076 0.206,0 0.365,0.066 0.477,0.197 0.107,0.135 0.16,0.33 0.16,0.59 v 3.95 z"
   id="path293"
   style="fill:#6d6e71" />
	<path
   d="m 797.898,624.203 c -0.144,0.164 -0.301,0.299 -0.474,0.408 -0.172,0.107 -0.316,0.16 -0.426,0.16 -0.144,0 -0.248,-0.039 -0.314,-0.121 -0.062,-0.08 -0.095,-0.211 -0.095,-0.391 v -5.867 h -1.528 v 6.395 c 0,0.457 0.09,0.793 0.269,1.025 0.181,0.227 0.444,0.34 0.799,0.34 0.287,0 0.583,-0.078 0.888,-0.242 0.306,-0.166 0.599,-0.4 0.882,-0.709 v 0.838 h 1.529 v -7.646 h -1.529 v 5.81 z"
   id="path295"
   style="fill:#6d6e71" />
	<path
   d="m 799.616,590.484 c -13.6,0 -24.625,11.025 -24.625,24.625 0,13.602 11.025,24.625 24.625,24.625 13.6,0 24.625,-11.023 24.625,-24.625 0,-13.599 -11.026,-24.625 -24.625,-24.625 z m 3.979,12.162 h 1.718 v 6.459 c 0,0.201 0.039,0.344 0.111,0.432 0.07,0.09 0.188,0.137 0.35,0.137 0.126,0 0.286,-0.061 0.48,-0.178 0.192,-0.121 0.37,-0.271 0.529,-0.457 v -6.393 h 1.723 v 8.424 h -1.723 v -0.93 c -0.314,0.342 -0.645,0.605 -0.989,0.783 -0.343,0.178 -0.675,0.27 -0.998,0.27 -0.399,0 -0.698,-0.127 -0.9,-0.379 -0.2,-0.248 -0.301,-0.623 -0.301,-1.129 v -7.039 z m -6.391,1.926 c 0,-0.65 0.231,-1.17 0.694,-1.561 0.464,-0.383 1.087,-0.578 1.868,-0.578 0.713,0 1.296,0.205 1.753,0.611 0.452,0.406 0.68,0.934 0.68,1.578 v 4.35 c 0,0.723 -0.224,1.287 -0.667,1.695 -0.448,0.408 -1.062,0.613 -1.844,0.613 -0.752,0 -1.355,-0.211 -1.807,-0.631 -0.451,-0.426 -0.678,-0.996 -0.678,-1.711 v -4.366 z m -4.688,-4.92 1.259,4.563 h 0.122 l 1.198,-4.563 h 1.969 l -2.255,6.682 v 4.736 h -1.938 v -4.525 l -2.307,-6.893 h 1.952 z m 22.54,24.034 c 0,3.047 -2.471,5.52 -5.519,5.52 h -19.176 c -3.049,0 -5.52,-2.473 -5.52,-5.52 v -4.438 c 0,-3.049 2.471,-5.52 5.52,-5.52 h 19.176 c 3.048,0 5.519,2.471 5.519,5.52 v 4.438 z"
   id="path297"
   style="fill:#6d6e71" />
	<path
   d="m 808.096,618.203 c -0.685,0 -1.24,0.207 -1.673,0.627 -0.433,0.416 -0.65,0.959 -0.65,1.617 v 3.438 c 0,0.738 0.199,1.316 0.591,1.734 0.393,0.42 0.933,0.631 1.618,0.631 0.762,0 1.333,-0.197 1.715,-0.592 0.387,-0.398 0.575,-0.988 0.575,-1.773 v -0.393 h -1.571 v 0.348 c 0,0.451 -0.054,0.742 -0.152,0.873 -0.101,0.131 -0.278,0.197 -0.531,0.197 -0.244,0 -0.417,-0.076 -0.519,-0.23 -0.1,-0.158 -0.148,-0.436 -0.148,-0.84 v -1.44 h 2.922 v -1.953 c 0,-0.723 -0.186,-1.277 -0.563,-1.666 -0.376,-0.385 -0.914,-0.578 -1.614,-0.578 z m 0.605,3.008 h -1.351 v -0.773 c 0,-0.32 0.05,-0.553 0.157,-0.686 0.106,-0.143 0.28,-0.211 0.524,-0.211 0.231,0 0.404,0.068 0.508,0.211 0.106,0.133 0.161,0.365 0.161,0.686 v 0.773 z"
   id="path299"
   style="fill:#6d6e71" />
</g>
<g
   id="g301">
	<rect
   width="12.165"
   height="12.164"
   x="887.00098"
   y="602.48798"
   id="rect303"
   style="fill:#6d6e71" />
	<rect
   width="12.166"
   height="12.166"
   x="899.16699"
   y="614.65198"
   id="rect305"
   style="fill:#6d6e71" />
	<path
   d="m 899.462,590.484 c -13.601,0 -24.625,11.025 -24.625,24.625 0,13.602 11.024,24.625 24.625,24.625 13.6,0 24.625,-11.023 24.625,-24.625 0,-13.599 -11.025,-24.625 -24.625,-24.625 z m 12.98,36.891 c 0,0.305 -0.248,0.555 -0.555,0.555 h -25.44 c -0.307,0 -0.556,-0.25 -0.556,-0.555 v -25.441 c 0,-0.307 0.249,-0.557 0.556,-0.557 h 25.44 c 0.307,0 0.555,0.25 0.555,0.557 v 25.441 z"
   id="path307"
   style="fill:#6d6e71" />
</g>
<path
   d="m 998.912,590.484 c -13.601,0 -24.625,11.025 -24.625,24.625 0,13.602 11.024,24.625 24.625,24.625 13.601,0 24.625,-11.023 24.625,-24.625 0,-13.599 -11.025,-24.625 -24.625,-24.625 z m -7.638,35.735 c -1.787,0 -3.236,-1.451 -3.236,-3.238 0,-1.789 1.449,-3.238 3.236,-3.238 1.788,0 3.238,1.449 3.238,3.238 0,1.787 -1.45,3.238 -3.238,3.238 z m 8.123,0.021 c 0,-3.057 -1.182,-5.928 -3.329,-8.082 -2.143,-2.154 -4.993,-3.342 -8.028,-3.342 v -4.674 c 8.84,0 16.03,7.223 16.03,16.098 h -4.673 z m 8.256,0.004 c 0,-10.867 -8.795,-19.711 -19.605,-19.711 v -4.676 c 13.388,0 24.279,10.941 24.279,24.387 h -4.674 z"
   id="path309"
   style="fill:#6d6e71" />
<path
   d="m 100.958,691.016 c -13.6,0 -24.625,11.023 -24.625,24.623 0,13.6 11.025,24.625 24.625,24.625 13.599,0 24.624,-11.025 24.624,-24.625 0,-13.6 -11.026,-24.623 -24.624,-24.623 z m -0.002,7.099 c 2.469,0 4.858,0.523 7.109,1.547 0,0.244 0,10.701 0,11.494 -0.59,-0.535 -12.672,-11.504 -13.129,-11.916 1.945,-0.728 3.965,-1.125 6.02,-1.125 z m -17.237,17.239 c 0,-6.498 3.595,-12.355 9.383,-15.328 0.196,0.182 6.232,5.658 6.523,5.922 -0.301,0.273 -14.813,13.461 -15.278,13.885 -0.405,-1.493 -0.628,-3.001 -0.628,-4.479 z m 8.364,14.724 c -3.219,-1.949 -5.74,-4.885 -7.122,-8.352 0.199,-0.18 6.546,-5.949 7.122,-6.473 0,0.796 0,14.147 0,14.825 z m 10.445,2.442 h -3.161 c -1.885,-0.178 -3.72,-0.662 -5.473,-1.447 0,-0.248 0,-7.869 0,-8.229 0.371,0 21.925,0 22.547,0 -2.644,5.449 -7.958,9.119 -13.913,9.676 z m 14.688,-11.491 c -0.272,0 -6.981,0 -7.336,0 0,-0.369 0,-19.697 0,-20.381 5.128,3.121 8.314,8.715 8.314,14.705 10e-4,1.932 -0.337,3.838 -0.978,5.676 z"
   id="path311"
   style="fill:#6d6e71" />
<g
   id="g313">
	<path
   d="m 188.42,719.096 5.299,-1.43 -2.371,-4.852 c -4.459,2.899 -2.928,6.282 -2.928,6.282 z"
   id="path315"
   style="fill:#6d6e71" />
	<path
   d="m 199.27,691.016 c -13.6,0 -24.624,11.023 -24.624,24.623 0,13.6 11.024,24.625 24.624,24.625 13.6,0 24.625,-11.025 24.625,-24.625 0,-13.6 -11.025,-24.623 -24.625,-24.623 z m 2.594,28.226 -3.675,-7.469 c 1.772,-0.297 3.438,-0.213 4.901,0.057 l 1.555,2.889 5.396,-1.459 c 0,0 -6.549,-4.607 -14.391,-2.354 l 4.37,8.867 -15.902,4.58 c 0,0 -4.618,-10.148 5.805,-14.451 l -2.016,-4.123 4.943,-0.561 1.667,3.387 c 0.1,-0.018 0.188,-0.041 0.289,-0.057 17.176,-2.924 22.936,6.119 22.936,6.119 l -15.878,4.575 z"
   id="path317"
   style="fill:#6d6e71" />
</g>
<g
   id="g319">
	<ellipse
   cx="305.953"
   cy="706.90802"
   rx="13.304"
   ry="10.221"
   id="ellipse321"
   style="fill:#6d6e71" />
	<path
   d="m 314.825,722.813 c -0.096,0.041 -0.193,0.076 -0.289,0.113 -0.219,0.086 -0.438,0.17 -0.659,0.248 -0.174,0.061 -0.351,0.117 -0.526,0.178 -0.147,0.045 -0.294,0.096 -0.443,0.143 -0.205,0.061 -0.413,0.119 -0.621,0.176 -0.124,0.033 -0.248,0.068 -0.372,0.1 -0.224,0.061 -0.448,0.111 -0.675,0.164 -0.113,0.023 -0.227,0.051 -0.34,0.072 -0.236,0.049 -0.473,0.098 -0.711,0.139 -0.109,0.02 -0.221,0.037 -0.33,0.057 -0.242,0.041 -0.484,0.078 -0.729,0.109 -0.115,0.018 -0.23,0.029 -0.346,0.043 -0.24,0.029 -0.482,0.057 -0.726,0.076 -0.135,0.016 -0.271,0.02 -0.405,0.031 -0.225,0.016 -0.45,0.033 -0.678,0.043 -0.256,0.01 -0.513,0.016 -0.77,0.018 -0.104,0.002 -0.205,0.008 -0.31,0.008 -0.005,0 -0.01,0 -0.015,0 -0.008,0 -0.015,0 -0.022,0 -0.517,0 -1.026,-0.02 -1.533,-0.051 -0.042,-0.006 -0.084,-0.006 -0.126,-0.01 -1.605,-0.107 -3.16,-0.365 -4.643,-0.766 l -9.905,5.943 1.065,-10.656 c -3.504,-3.148 -5.656,-7.385 -5.656,-12.051 0,-0.012 0.002,-0.023 0.002,-0.033 0,-0.016 -0.002,-0.025 -0.002,-0.037 0,-5.078 2.556,-9.627 6.602,-12.846 h 0.084 c 1.481,-1.16 3.166,-2.137 5,-2.893 -12.487,1.193 -22.254,11.707 -22.254,24.508 0,13.6 11.025,24.625 24.625,24.625 13.507,0 24.469,-10.877 24.617,-24.35 -2.095,2.981 -5.192,5.397 -8.909,6.899 z"
   id="path323"
   style="fill:#6d6e71" />
</g>
<g
   id="g325">
	<path
   d="m 389.508,725.391 c 1.35,0 2.523,-0.926 2.56,-2.027 0.036,-1.086 -1.058,-2.061 -2.39,-2.129 l -1.42,-0.076 c -3.729,-0.191 -6.766,-3.311 -6.766,-6.943 0,-3.699 3.092,-6.711 6.891,-6.711 h 9.322 c 3.801,0 6.891,3.092 6.891,6.893 v 8.58 c 0,1.332 1.085,2.414 2.418,2.414 h 1.127 c 1.333,0 2.418,-1.082 2.418,-2.414 V 694.3 c -3.616,-2.084 -7.808,-3.283 -12.281,-3.283 -13.6,0 -24.625,11.023 -24.625,24.623 0,3.467 0.72,6.762 2.011,9.752 h 13.844 z"
   id="path327"
   style="fill:#6d6e71" />
	<path
   d="m 415.031,697.596 v 25.381 c 0,3.797 -3.091,6.887 -6.89,6.887 h -1.127 c -3.798,0 -6.89,-3.09 -6.89,-6.887 v -8.58 c 0,-1.334 -1.028,-2.475 -2.362,-2.475 h -9.322 c -1.334,0 -2.475,1.059 -2.475,2.293 0,1.273 1.158,2.41 2.527,2.479 l 1.42,0.076 c 3.77,0.193 6.742,3.219 6.625,6.74 -0.118,3.504 -3.271,6.354 -7.029,6.354 h -11.325 c 4.462,6.291 11.796,10.4 20.095,10.4 13.6,0 24.625,-11.025 24.625,-24.625 0,-7.129 -3.032,-13.545 -7.872,-18.043 z"
   id="path329"
   style="fill:#6d6e71" />
</g>
<g
   id="g331">
	<path
   d="m 504.663,718.402 h -9.385 c -0.881,0 -1.594,0.707 -1.594,1.584 0,0.861 0.713,1.588 1.594,1.588 h 9.385 c 0.877,0 1.587,-0.727 1.587,-1.588 0,-0.877 -0.71,-1.584 -1.587,-1.584 z"
   id="path333"
   style="fill:#6d6e71" />
	<path
   d="m 495.278,712.049 h 4.62 c 0.88,0 1.595,-0.725 1.595,-1.596 0,-0.873 -0.715,-1.592 -1.595,-1.592 h -4.62 c -0.881,0 -1.594,0.719 -1.594,1.592 0,0.871 0.713,1.596 1.594,1.596 z"
   id="path335"
   style="fill:#6d6e71" />
	<path
   d="m 499.125,691.016 c -13.601,0 -24.625,11.023 -24.625,24.623 0,13.6 11.024,24.625 24.625,24.625 13.601,0 24.624,-11.025 24.624,-24.625 0,-13.6 -11.024,-24.623 -24.624,-24.623 z m 13.948,29.093 c -0.025,4.574 -3.748,8.32 -8.33,8.32 h -9.57 c -4.582,0 -8.327,-3.746 -8.327,-8.32 v -9.721 c 0,-4.584 3.745,-8.338 8.327,-8.338 h 5.824 c 2.152,0.256 5.281,2.098 6.436,4.549 0.316,0.686 0.484,0.793 0.747,2.83 0.142,1.049 0.214,1.824 0.683,2.254 0.658,0.6 3.109,0.197 3.593,0.574 l 0.372,0.291 0.221,0.459 0.077,0.367 -0.053,6.735 z"
   id="path337"
   style="fill:#6d6e71" />
</g>
<path
   d="m 599.608,691.016 c -13.6,0 -24.625,11.023 -24.625,24.623 0,13.6 11.025,24.625 24.625,24.625 13.6,0 24.625,-11.025 24.625,-24.625 0,-13.6 -11.025,-24.623 -24.625,-24.623 z m -17.756,24.576 c 0,-2.57 0.553,-5.014 1.539,-7.225 l 8.469,23.205 c -5.924,-2.873 -10.008,-8.951 -10.008,-15.98 z m 17.757,17.758 c -1.745,0 -3.425,-0.254 -5.017,-0.723 l 5.329,-15.479 5.459,14.953 c 0.034,0.086 0.079,0.166 0.125,0.242 -1.844,0.653 -3.829,1.007 -5.896,1.007 z m 2.446,-26.08 c 1.071,-0.059 2.031,-0.17 2.031,-0.17 0.958,-0.113 0.843,-1.516 -0.111,-1.465 0,0 -2.877,0.229 -4.734,0.229 -1.744,0 -4.674,-0.229 -4.674,-0.229 -0.958,-0.051 -1.072,1.408 -0.115,1.465 0,0 0.906,0.111 1.863,0.17 l 2.767,7.578 -3.886,11.654 -6.467,-19.232 c 1.071,-0.059 2.031,-0.17 2.031,-0.17 0.957,-0.113 0.844,-1.516 -0.11,-1.465 0,0 -2.876,0.229 -4.734,0.229 -0.333,0 -0.725,-0.01 -1.142,-0.021 3.174,-4.822 8.631,-8.006 14.835,-8.006 4.623,0 8.833,1.77 11.991,4.664 -0.076,-0.006 -0.154,-0.016 -0.229,-0.016 -1.748,0 -2.982,1.52 -2.982,3.15 0,1.465 0.844,2.701 1.742,4.164 0.674,1.184 1.465,2.705 1.465,4.898 0,1.52 -0.452,3.432 -1.352,5.74 l -1.771,5.916 -6.418,-19.083 z m 6.484,23.669 5.421,-15.68 c 1.014,-2.533 1.352,-4.559 1.352,-6.359 0,-0.652 -0.043,-1.26 -0.121,-1.828 1.386,2.533 2.174,5.432 2.174,8.52 -10e-4,6.554 -3.551,12.271 -8.826,15.347 z"
   id="path339"
   style="fill:#6d6e71" />
<g
   id="g341">
	<path
   d="m 700.455,691.016 c -13.6,0 -24.624,11.023 -24.624,24.623 0,13.6 11.024,24.625 24.624,24.625 13.601,0 24.625,-11.025 24.625,-24.625 0,-13.6 -11.025,-24.623 -24.625,-24.623 z m 2.152,14.025 c -0.47,-0.668 -1.339,-1.006 -2.143,-1.006 h -0.269 c -1.339,0.135 -2.544,0.871 -2.878,2.346 -0.067,0.334 -0.269,0.668 -0.671,0.736 l -3.748,-0.469 c -0.269,-0.066 -0.67,-0.268 -0.537,-0.803 0.805,-4.221 4.42,-5.693 7.834,-5.891 H 701 c 1.875,0 4.286,0.535 5.825,1.939 1.875,1.74 1.673,4.086 1.673,6.627 v 6.027 c 0,1.809 0.738,2.611 1.474,3.549 0.202,0.334 0.269,0.738 -0.067,1.006 -0.734,0.67 -2.141,1.875 -2.945,2.545 -0.268,0.197 -0.603,0.197 -0.938,0.064 -1.271,-1.07 -1.473,-1.539 -2.209,-2.543 -1.273,1.338 -2.344,2.074 -3.617,2.479 -0.802,0.197 -1.673,0.332 -2.743,0.332 -3.216,0 -5.761,-2.006 -5.761,-5.959 0,-3.145 1.676,-5.289 4.152,-6.295 1.271,-0.602 2.813,-0.869 4.352,-1.07 1.005,-0.135 2.01,-0.201 2.88,-0.268 v -0.533 c 0,-0.936 0.067,-2.008 -0.469,-2.813 z m 10.141,21.098 c -0.39,0.313 -0.806,0.592 -1.22,0.84 l -0.018,0.012 c -3.164,1.988 -7.242,3.207 -10.848,3.285 -0.113,0.004 -0.225,0.006 -0.336,0.006 -5.667,-0.002 -9.882,-3.102 -13.727,-6.439 -0.188,-0.15 -0.32,-0.377 -0.318,-0.625 -0.002,-0.193 0.08,-0.383 0.217,-0.508 0.138,-0.131 0.326,-0.199 0.511,-0.199 0.146,0 0.289,0.039 0.433,0.117 4.098,2.273 8.158,4.578 13.134,4.578 0.114,0 0.231,0 0.348,-0.004 3.165,-0.068 6.584,-0.842 9.84,-2.162 v -0.004 l 0.3,-0.119 0.231,-0.096 c 0.155,-0.068 0.321,-0.143 0.484,-0.207 0.145,-0.068 0.3,-0.104 0.45,-0.104 0.477,0.002 0.918,0.352 0.926,0.871 0.004,0.295 -0.163,0.576 -0.407,0.758 z m 1.859,1.375 c -0.158,0.123 -0.34,0.207 -0.556,0.209 h -0.004 c -0.145,0 -0.315,-0.049 -0.446,-0.174 -0.136,-0.127 -0.199,-0.314 -0.196,-0.471 0,-0.107 0.021,-0.205 0.057,-0.295 0.147,-0.387 0.368,-0.969 0.552,-1.553 0.185,-0.578 0.323,-1.176 0.318,-1.498 10e-4,-0.084 -0.009,-0.141 -0.017,-0.168 -0.005,-0.002 -0.013,-0.006 -0.024,-0.012 -0.035,-0.018 -0.099,-0.037 -0.183,-0.055 -0.167,-0.039 -0.41,-0.057 -0.682,-0.055 -0.384,0 -0.827,0.035 -1.245,0.076 -0.486,0.074 -0.902,0.113 -1.187,0.172 l -0.023,0.006 -0.027,0.002 c -0.029,0.002 -0.061,0.004 -0.096,0.004 -0.144,0 -0.309,-0.039 -0.449,-0.15 -0.143,-0.115 -0.227,-0.307 -0.222,-0.477 0.009,-0.309 0.179,-0.51 0.382,-0.66 0.326,-0.238 0.679,-0.438 1.065,-0.596 l -10e-4,-0.018 0.33,-0.107 0.011,-0.002 0.585,-0.197 v 0.039 c 0.578,-0.127 1.156,-0.176 1.68,-0.176 0.729,0.002 1.332,0.09 1.746,0.248 0.142,0.061 0.269,0.115 0.402,0.262 l 0.017,0.02 0.014,0.021 c 0.132,0.199 0.2,0.438 0.212,0.758 l 0.004,0.188 c -0.021,1.2 -0.536,3.325 -2.017,4.659 z"
   id="path343"
   style="fill:#6d6e71" />
	<path
   d="m 703.076,711.471 c -1.004,0 -2.009,0.064 -2.88,0.266 -1.605,0.471 -2.878,1.475 -2.878,3.617 0,1.674 0.87,2.811 2.343,2.811 0.201,0 0.402,-0.066 0.535,-0.066 0.871,-0.201 1.676,-0.805 2.144,-1.74 0.804,-1.34 0.736,-2.547 0.736,-4.084 v -0.804 z"
   id="path345"
   style="fill:#6d6e71" />
</g>
<path
   d="m 799.616,691.016 c -13.6,0 -24.625,11.023 -24.625,24.623 0,13.6 11.025,24.625 24.625,24.625 13.6,0 24.625,-11.025 24.625,-24.625 0,-13.6 -11.026,-24.623 -24.625,-24.623 z m -16.388,25.31 v -4.371 c 0,-0.371 0.302,-0.674 0.676,-0.674 h 7.556 l -3.283,5.721 h -4.272 c -0.375,0 -0.677,-0.305 -0.677,-0.676 z m 5.378,9.238 -2.512,1.707 c -0.34,0.232 -0.578,0.088 -0.532,-0.322 l 0.337,-2.928 c 0.047,-0.406 0.376,-0.574 0.731,-0.369 l 1.944,1.115 c 0.357,0.206 0.372,0.563 0.032,0.797 z m 1.625,-1.925 c -0.205,0.355 -0.664,0.479 -1.02,0.273 l -1.945,-1.117 c -0.355,-0.203 -0.48,-0.662 -0.275,-1.018 l 2.742,-4.775 3.285,-5.721 2.98,-5.193 c 0.204,-0.354 0.664,-0.48 1.02,-0.273 l 1.944,1.113 c 0.356,0.207 0.479,0.664 0.275,1.02 l -2.735,4.762 -2.461,4.293 -3.81,6.636 z m 5.367,-6.637 3.283,-5.721 h 2.975 c 1.15,2.615 2.008,4.441 2.655,5.721 h -8.913 z m 11.634,1.92 c -0.777,-0.393 -4.656,-9.344 -5.651,-11.678 -0.994,-2.338 -3.995,-8.553 -3.027,-9.039 0.693,-0.344 3.176,4.549 5.033,7.488 1.062,1.678 2.781,4.865 4.152,7.455 0.018,0.033 0.036,0.068 0.053,0.102 0.063,0.117 0.124,0.234 0.184,0.348 0.018,0.033 0.035,0.064 0.051,0.096 0.055,0.102 0.108,0.203 0.161,0.303 0.029,0.059 0.059,0.115 0.089,0.168 0.033,0.068 0.068,0.135 0.103,0.199 0.047,0.088 0.093,0.174 0.14,0.26 0.007,0.018 0.014,0.031 0.021,0.047 0.594,1.127 1.047,1.996 1.228,2.332 0.014,0.027 0.029,0.053 0.039,0.072 0.476,0.865 -0.456,1.588 -0.975,1.801 -0.521,0.216 -0.823,0.433 -1.601,0.046 z m 2.549,4.113 -1.171,-1.852 c -0.242,-0.387 -0.119,-0.861 0.275,-1.066 l 1.116,-0.574 c 0.394,-0.201 0.887,-0.037 1.097,0.365 l 0.926,1.779 c 0.209,0.402 0.066,0.92 -0.313,1.145 l -0.798,0.477 c -0.379,0.232 -0.89,0.107 -1.132,-0.274 z m 4.762,5.307 c -0.246,-0.787 -2.115,-0.838 -2.952,-2.018 -0.838,-1.18 -0.145,-1.783 0.146,-2.064 3.394,-1.914 2.806,4.082 2.806,4.082 z m 0.972,-12.016 c 0,0.371 -0.302,0.676 -0.676,0.676 h -3.626 c -0.049,-0.197 -0.121,-0.391 -0.223,-0.578 -0.098,-0.176 -0.374,-0.703 -0.725,-1.371 -0.504,-0.961 -1.219,-2.324 -1.991,-3.771 h 6.564 c 0.374,0 0.676,0.303 0.676,0.674 v 4.37 z"
   id="path347"
   style="fill:#6d6e71" />
<g
   id="g349">
	<path
   d="m 910.131,710.246 c -1.105,5.01 -5.221,8.25 -10.486,8.25 h -2.718 l -1.137,5.164 -0.347,1.574 h -1.61 -2.024 l -0.572,2.543 h 6.059 l 1.482,-6.738 h 4.328 c 4.141,0 7.604,-2.471 8.529,-6.674 0.539,-2.443 -0.126,-4.199 -1.311,-5.332 -0.036,0.387 -0.099,0.791 -0.193,1.213 z"
   id="path351"
   style="fill:#6d6e71" />
	<path
   d="m 893.833,723.229 1.483,-6.736 h 4.328 c 0.051,0 0.102,-0.004 0.152,-0.006 2.462,-0.037 4.671,-0.951 6.237,-2.586 1.026,-1.068 1.777,-2.443 2.14,-4.086 0.159,-0.721 0.211,-1.381 0.179,-1.984 -0.048,-0.865 -0.274,-1.611 -0.631,-2.242 -1.03,-1.832 -3.138,-2.693 -5.048,-2.693 H 892.35 l -4.575,20.334 h 2.431 2.055 1.572 z m 3.553,-15.788 0.095,-0.406 h 2.967 c 0.512,0 0.963,0.148 1.319,0.406 0.676,0.486 1.005,1.363 0.721,2.373 -0.162,0.676 -0.547,1.289 -1.056,1.768 -0.184,0.172 -0.385,0.324 -0.598,0.459 -0.551,0.348 -1.179,0.559 -1.81,0.559 h -2.843 l 1.205,-5.159 z"
   id="path353"
   style="fill:#6d6e71" />
	<path
   d="m 900.54,709.348 0.009,-0.035 0.01,-0.039 c 0.032,-0.117 0.03,-0.188 0.026,-0.217 -0.021,-0.008 -0.064,-0.018 -0.137,-0.018 h -1.377 l -0.362,1.557 h 0.316 c 0.625,0 1.36,-0.608 1.515,-1.248 z"
   id="path355"
   style="fill:#6d6e71" />
	<path
   d="m 899.462,691.016 c -13.601,0 -24.625,11.023 -24.625,24.623 0,13.6 11.024,24.625 24.625,24.625 13.6,0 24.625,-11.025 24.625,-24.625 0,-13.6 -11.025,-24.623 -24.625,-24.623 z m 14.131,23.781 c -1.104,5.01 -5.222,8.246 -10.487,8.246 h -2.717 l -1.137,5.164 -0.348,1.574 h -1.609 -6.059 -2.505 l 0.55,-2.443 0.474,-2.104 h -1.98 -2.504 l 0.55,-2.443 4.575,-20.338 0.352,-1.564 h 1.603 10.324 c 2.459,0 4.77,1.049 6.182,2.805 0.521,0.65 1.055,1.566 1.327,2.773 0.827,0.457 1.557,1.057 2.133,1.773 0.975,1.215 1.986,3.336 1.276,6.557 z"
   id="path357"
   style="fill:#6d6e71" />
</g>
<path
   d="m 998.912,691.016 c -13.601,0 -24.625,11.023 -24.625,24.623 0,13.6 11.024,24.625 24.625,24.625 13.601,0 24.625,-11.025 24.625,-24.625 0,-13.6 -11.025,-24.623 -24.625,-24.623 z m 16.846,29.836 h -32.051 v -7.701 h 3.568 v 4.133 h 24.912 v -4.133 h 3.57 v 7.701 z"
   id="path359"
   style="fill:#6d6e71" />
</svg>